<svg width="37" height="33" viewBox="0 0 37 33" fill="none" xmlns="http://www.w3.org/2000/svg">
<path d="M13.6962 17.7192C13.2278 13.2662 17.6974 9.69544 23.6703 9.74377C29.649 9.79211 34.876 13.4415 35.3444 17.8884C35.8127 22.3473 31.349 25.9121 25.3702 25.8638C19.3915 25.8154 14.1645 22.1721 13.6962 17.7192ZM36.4603 19.1028C35.9226 13.5804 29.9034 9.06103 23.0227 9.00061C16.1362 8.94019 10.9959 13.369 11.5394 18.8913C12.0829 24.4137 18.0963 28.9391 24.9771 28.9996C31.8578 29.0539 37.0039 24.6312 36.4603 19.1028Z" fill="#F7BB82"/>
<path d="M26.0665 27.9245C22.6743 31.4635 17.2271 31.7579 13.8985 28.5827C10.57 25.4074 10.6279 19.9691 14.0259 16.4359C17.4181 12.9027 22.8711 12.6083 26.1881 15.7778C29.5108 18.953 29.4587 24.3914 26.0607 27.9245M13.4991 16.3205C9.55695 20.431 9.49328 26.7526 13.3544 30.4416C17.2155 34.1307 23.5542 33.7901 27.4963 29.6796C31.4443 25.5691 31.508 19.2475 27.6411 15.5584C23.78 11.8694 17.447 12.21 13.4991 16.3205Z" fill="#F4A051"/>
<path d="M13.9744 2.85546C20.9972 0.182417 27.9451 2.8847 29.4891 8.89173C31.0331 14.9046 26.5913 21.9352 19.5685 24.6083C12.5457 27.2871 5.59777 24.579 4.05379 18.572C2.50406 12.565 6.95163 5.52849 13.9744 2.85546ZM7.44709 5.1483C0.165045 11.0091 -1.69003 19.4961 3.30485 24.1052C8.29973 28.7202 18.2607 27.7083 25.5485 21.8475C32.8363 15.9925 34.6914 7.50549 29.6907 2.89055C24.6959 -1.71854 14.7349 -0.706646 7.44709 5.1483Z" fill="#ED7100"/>
</svg>
