<svg width="29" height="28" viewBox="0 0 29 28" fill="none" xmlns="http://www.w3.org/2000/svg">
<rect width="28" height="28" transform="translate(0.9375)" fill="white"/>
<path fill-rule="evenodd" clip-rule="evenodd" d="M15.6738 22.1568L14.9375 23C13.8024 21.7179 12.8053 20.5138 11.9463 19.3878L11.394 18.6488C9.08968 15.4963 7.9375 12.9955 7.9375 11.1465C7.9375 7.1996 11.0715 4 14.9375 4C18.8035 4 21.9375 7.1996 21.9375 11.1465C21.9375 12.9955 20.7853 15.4963 18.481 18.6488L17.9287 19.3878C17.2606 20.2636 16.509 21.1866 15.6738 22.1568ZM16.9375 11C16.9375 12.1046 16.0421 13 14.9375 13C13.8329 13 12.9375 12.1046 12.9375 11C12.9375 9.89543 13.8329 9 14.9375 9C16.0421 9 16.9375 9.89543 16.9375 11Z" fill="#4B4B4B"/>
</svg>
