<svg width="76" height="76" viewBox="0 0 76 76" fill="none" xmlns="http://www.w3.org/2000/svg">
<g clip-path="url(#clip0_3139_47430)">
<path d="M62.8514 7H14.1486C10.7532 7 8 9.77623 8 13.1975V62.8025C8 66.2273 10.7532 69 14.1486 69H62.8514C66.2503 69 69 66.2238 69 62.8025V13.1975C69 9.77266 66.2468 7 62.8514 7ZM27.5741 56.0562H19.3677V29.5341H27.5741V56.0562ZM23.4159 26.2803C20.8259 26.2803 19.1512 24.4343 19.1512 22.157C19.1512 19.8797 20.8791 18.0336 23.5259 18.0336C26.1726 18.0336 27.7905 19.8227 27.8437 22.157C27.8437 24.4343 26.1691 26.2803 23.4159 26.2803ZM57.5401 56.0562H49.3337V41.3589C49.3337 37.9412 48.1451 35.6105 45.1755 35.6105C42.9083 35.6105 41.5601 37.1821 40.9641 38.7003C40.7476 39.242 40.6944 40.0011 40.6944 40.7602V56.0526H32.488V37.9911C32.488 34.6839 32.3816 31.9183 32.2716 29.5306H39.3994L39.779 33.2191H39.9422C41.0208 31.4835 43.6676 28.9354 48.0954 28.9354C53.4954 28.9354 57.5437 32.5705 57.5437 40.3789V56.0526L57.5401 56.0562Z" fill="white"/>
</g>
<defs>
<clipPath id="clip0_3139_47430">
<rect width="61" height="62" fill="white" transform="translate(8 7)"/>
</clipPath>
</defs>
</svg>
