<svg width="76" height="76" viewBox="0 0 76 76" fill="none" xmlns="http://www.w3.org/2000/svg">
<path d="M71.3983 21.1389C70.5955 18.1356 68.2423 15.7682 65.2582 14.9595C59.8066 13.4585 37.9995 13.4585 37.9995 13.4585C37.9995 13.4585 16.1934 13.4585 10.7417 14.9026C7.81499 15.7104 5.40446 18.136 4.60166 21.1389C3.16699 26.6242 3.16699 38.0002 3.16699 38.0002C3.16699 38.0002 3.16699 49.4334 4.60166 54.8615C5.40531 57.8643 7.75759 60.2317 10.7422 61.0404C16.2508 62.5418 38.0004 62.5418 38.0004 62.5418C38.0004 62.5418 59.8066 62.5418 65.2582 61.0977C68.2428 60.2895 70.5955 57.9221 71.3991 54.9192C72.8334 49.4334 72.8334 38.0579 72.8334 38.0579C72.8334 38.0579 72.8908 26.6242 71.3983 21.1389ZM31.0567 48.5096V27.4907L49.1903 38.0002L31.0567 48.5096Z" fill="white"/>
</svg>
