<svg width="76" height="76" viewBox="0 0 76 76" fill="none" xmlns="http://www.w3.org/2000/svg">
<path d="M53.038 7.90918H22.9482C14.6743 7.90918 7.90332 14.6801 7.90332 22.9541V53.0454C7.90332 61.3171 14.6743 68.0903 22.9482 68.0903H53.038C61.312 68.0903 68.083 61.3171 68.083 53.0454V22.9541C68.083 14.6801 61.312 7.90918 53.038 7.90918ZM63.0677 53.0454C63.0677 58.5744 58.5701 63.0751 53.038 63.0751H22.9482C17.4185 63.0751 12.9185 58.5744 12.9185 53.0454V22.9541C12.9185 17.4236 17.4185 12.9244 22.9482 12.9244H53.038C58.5701 12.9244 63.0677 17.4236 63.0677 22.9541V53.0454Z" fill="white"/>
<path d="M54.3071 25.4614C56.3844 25.4614 58.0684 23.7775 58.0684 21.7002C58.0684 19.6229 56.3844 17.939 54.3071 17.939C52.2299 17.939 50.5459 19.6229 50.5459 21.7002C50.5459 23.7775 52.2299 25.4614 54.3071 25.4614Z" fill="white"/>
<path d="M37.9971 22.9551C29.6862 22.9551 22.9521 29.6899 22.9521 38C22.9521 46.307 29.6862 53.0464 37.9971 53.0464C46.3055 53.0464 53.042 46.307 53.042 38C53.042 29.6899 46.3055 22.9551 37.9971 22.9551ZM37.9971 48.0312C32.4582 48.0312 27.9674 43.5403 27.9674 38C27.9674 32.4597 32.4582 27.9703 37.9971 27.9703C43.5359 27.9703 48.0268 32.4597 48.0268 38C48.0268 43.5403 43.5359 48.0312 37.9971 48.0312Z" fill="white"/>
</svg>
