<svg width="20" height="19" viewBox="0 0 20 19" fill="none" xmlns="http://www.w3.org/2000/svg">
<path fill-rule="evenodd" clip-rule="evenodd" d="M17.5814 8.59701L16.002 10.1181V10.1455V10.1441C15.8628 10.282 15.6738 10.3579 15.4746 10.3579C15.2768 10.3579 15.0863 10.282 14.9486 10.1441C14.657 9.8572 14.657 9.40011 14.9486 9.11318L16.5295 7.56466H16.528C17.8378 6.27214 17.8378 4.21306 16.528 2.92068C15.9053 2.30467 15.0511 1.95866 14.1574 1.95866C13.2652 1.95866 12.4095 2.30465 11.7883 2.92068L8.89178 5.75892L8.89032 5.75751C7.5805 7.05147 7.5805 9.10911 8.89032 10.4029C9.06906 10.5745 9.26685 10.7278 9.48075 10.8572C9.77231 11.1441 9.70784 11.6631 9.41629 11.95C9.26099 12.1216 9.02509 12.2046 8.78921 12.1723C8.5 12 8.35405 11.9964 8.25443 11.7897C8.10792 11.68 7.96727 11.5604 7.83687 11.4353C5.94539 9.56749 5.94539 6.59434 7.83687 4.72782L10.7334 1.88959C11.633 1.00069 12.8681 0.5 14.1574 0.5C15.4467 0.5 16.6818 1.00069 17.5814 1.88959C19.4729 3.75737 19.4729 6.72905 17.5814 8.59701ZM12.162 14.2722L9.26547 17.1104C8.3659 17.9993 7.13079 18.5 5.84149 18.5C4.55219 18.5 3.31708 17.9993 2.41751 17.1104C0.527496 15.2426 0.527496 12.2709 2.41751 10.403L3.9984 8.85585C4.13612 8.71802 4.32658 8.64207 4.52436 8.64207C4.72361 8.64207 4.91263 8.71802 5.05178 8.85585C5.34187 9.14277 5.34187 9.59987 5.05178 9.88679L3.47093 11.4353C2.16111 12.7278 2.16111 14.7869 3.47093 16.0807C4.09362 16.6953 4.94923 17.0414 5.84149 17.0414C6.73521 17.0414 7.58939 16.6954 8.21205 16.0807L11.1086 13.2425C12.4184 11.9485 12.4184 9.8909 11.1086 8.59708C10.9313 8.42549 10.7321 8.27359 10.5182 8.14421L10.5812 8.08232H10.5826C10.2911 7.794 10.2911 7.3369 10.5826 7.04997C10.7379 6.87838 10.9738 6.7954 11.2097 6.82775C11.4441 6.8601 11.6449 7.00497 11.7445 7.21171C11.891 7.32142 12.0316 7.43956 12.1621 7.56614C14.0535 9.43252 14.0535 12.4057 12.162 14.2722Z" fill="#151515"/>
<path d="M9.48075 10.8572C9.26685 10.7278 9.06906 10.5745 8.89032 10.4029C7.5805 9.10911 7.5805 7.05147 8.89032 5.75751L8.89178 5.75892L11.7883 2.92068C12.4095 2.30465 13.2652 1.95866 14.1574 1.95866C15.0511 1.95866 15.9053 2.30467 16.528 2.92068C17.8378 4.21306 17.8378 6.27214 16.528 7.56466H16.5295L14.9486 9.11318C14.657 9.40011 14.657 9.8572 14.9486 10.1441C15.0863 10.282 15.2768 10.3579 15.4746 10.3579C15.6738 10.3579 15.8628 10.282 16.002 10.1441V10.1455V10.1181L17.5814 8.59701C19.4729 6.72905 19.4729 3.75737 17.5814 1.88959C16.6818 1.00069 15.4467 0.5 14.1574 0.5C12.8681 0.5 11.633 1.00069 10.7334 1.88959L7.83687 4.72782C5.94539 6.59434 5.94539 9.56749 7.83687 11.4353C7.96727 11.5604 8.10792 11.68 8.25443 11.7897C8.35405 11.9964 8.5 12 8.78921 12.1723C9.02509 12.2046 9.26099 12.1216 9.41629 11.95C9.70785 11.6631 9.77231 11.1441 9.48075 10.8572ZM9.48075 10.8572L9.41775 10.9191M3.9984 8.85585L2.41751 10.403C0.527496 12.2709 0.527496 15.2426 2.41751 17.1104C3.31708 17.9993 4.55219 18.5 5.84149 18.5C7.13079 18.5 8.3659 17.9993 9.26547 17.1104L12.162 14.2722C14.0535 12.4057 14.0535 9.43252 12.162 7.56614C12.0316 7.43956 11.891 7.32142 11.7445 7.21171C11.6449 7.00497 11.4441 6.8601 11.2097 6.82775C10.9738 6.7954 10.7379 6.87838 10.5826 7.04997C10.2911 7.3369 10.2911 7.794 10.5826 8.08232H10.5812L10.5182 8.14421C10.7321 8.27359 10.9313 8.42549 11.1086 8.59708C12.4184 9.8909 12.4184 11.9485 11.1086 13.2425L8.21205 16.0807C7.58939 16.6954 6.73521 17.0414 5.84149 17.0414C4.94923 17.0414 4.09362 16.6953 3.47093 16.0807C2.16111 14.7869 2.16111 12.7278 3.47093 11.4353L5.05178 9.88679C5.34187 9.59987 5.34187 9.14277 5.05178 8.85585C4.91263 8.71802 4.72361 8.64207 4.52436 8.64207C4.32658 8.64207 4.13612 8.71802 3.9984 8.85585ZM3.9984 8.85585V8.85445" stroke="#151515" stroke-width="0.2" stroke-linejoin="round"/>
</svg>
