<svg width="25" height="24" viewBox="0 0 25 24" fill="none" xmlns="http://www.w3.org/2000/svg">
<path fill-rule="evenodd" clip-rule="evenodd" d="M5.9375 5C4.83293 5 3.9375 5.89543 3.9375 7V17C3.9375 18.1046 4.83293 19 5.9375 19H19.9375C21.0421 19 21.9375 18.1046 21.9375 17V7C21.9375 5.89543 21.0421 5 19.9375 5H5.9375ZM7.59113 8.10191C7.21295 7.88153 6.73916 8.03041 6.53289 8.43443C6.32661 8.83846 6.46596 9.34464 6.84413 9.56502L12.564 12.8982C12.7968 13.0339 13.0782 13.0339 13.311 12.8982L19.0309 9.56502C19.409 9.34464 19.5484 8.83846 19.3421 8.43443C19.1358 8.03041 18.662 7.88153 18.2839 8.10191L12.9375 11.2175L7.59113 8.10191Z" fill="#4B4B4B"/>
</svg>
