<svg width="29" height="28" viewBox="0 0 29 28" fill="none" xmlns="http://www.w3.org/2000/svg">
<path d="M24.2709 18.5835V22.2506C24.2709 22.7951 23.85 23.2468 23.307 23.2852C22.8534 23.3172 22.4834 23.3332 22.1968 23.3332C13.033 23.3332 5.60425 15.9045 5.60425 6.74058C5.60425 6.45406 5.62027 6.084 5.65231 5.63043C5.69071 5.08742 6.14241 4.6665 6.68677 4.6665H10.354C10.6202 4.6665 10.8431 4.86812 10.8698 5.13296C10.8938 5.37072 10.9161 5.56161 10.9368 5.70564C11.1465 7.17066 11.575 8.5651 12.1881 9.85483C12.2865 10.0618 12.2223 10.3096 12.0358 10.4429L9.79756 12.0417C11.1602 15.2247 13.7127 17.7772 16.8957 19.1399L18.4916 16.9055C18.6265 16.7168 18.8773 16.6519 19.0868 16.7513C20.3764 17.3639 21.7707 17.7919 23.2355 18.0011C23.3787 18.0217 23.5683 18.0438 23.8045 18.0676C24.0693 18.0944 24.2709 18.3173 24.2709 18.5835Z" fill="#4B4B4B" stroke="#4B4B4B" stroke-width="0.5" stroke-linejoin="round"/>
</svg>
