<svg width="251" height="44" viewBox="0 0 251 44" fill="none" xmlns="http://www.w3.org/2000/svg">
<g clip-path="url(#clip0_245_928)">
<path d="M17.9157 22.5551C17.2871 16.8349 23.2867 12.2479 31.3043 12.3099C39.3297 12.372 46.3461 17.06 46.9748 22.7725C47.6035 28.5005 41.6116 33.0797 33.5862 33.0177C25.5608 32.9556 18.5444 28.2754 17.9157 22.5551ZM48.4728 24.3325C47.751 17.2385 39.6712 11.4329 30.435 11.3553C21.1911 11.2777 14.2911 16.9668 15.0207 24.0609C15.7503 31.1549 23.8222 36.9683 33.0584 37.0459C42.2946 37.1157 49.2024 31.4343 48.4728 24.3325Z" fill="#F7BB82"/>
<path d="M34.5208 37.177C29.9726 41.9348 22.669 42.3307 18.2061 38.0618C13.7433 33.793 13.8209 26.4816 18.3769 21.7316C22.9251 16.9816 30.2365 16.5857 34.6838 20.8468C39.1389 25.1156 39.0691 32.427 34.5131 37.177M17.6706 21.5764C12.385 27.1026 12.2996 35.6014 17.4765 40.561C22.6535 45.5206 31.1523 45.0627 36.4379 39.5365C41.7313 34.0103 41.8166 25.5115 36.6319 20.5519C31.455 15.5922 22.9639 16.0502 17.6706 21.5764Z" fill="#F4A051"/>
<path d="M18.1531 3.78712C27.6144 0.240107 36.9747 3.82593 39.0548 11.797C41.1349 19.7758 35.1508 29.1052 25.6895 32.6522C16.2282 36.207 6.86784 32.6134 4.78776 24.6423C2.69991 16.6712 8.6918 7.33413 18.1531 3.78712ZM9.35929 6.82963C-0.45126 14.6067 -2.95047 25.8686 3.77876 31.9847C10.508 38.1085 23.9276 36.7658 33.746 28.9887C43.5643 21.2195 46.0635 9.95752 39.3265 3.83369C32.5972 -2.28238 19.1776 -0.939642 9.35929 6.82963Z" fill="#ED7100"/>
<path d="M71.0254 13.2412V30.7977H68.2778V21.5383H57.8696V30.7977H55.1221V13.2412H57.8696V19.1322H68.2778V13.2412H71.0254Z" fill="#231815"/>
<path d="M77.6326 30.798C76.3519 30.798 75.3352 30.441 74.5823 29.7192C73.8217 28.9974 73.4336 28.0737 73.4336 26.9483V26.0092C73.4336 24.8605 73.8139 23.9291 74.5823 23.215C75.3274 22.4777 76.3442 22.1129 77.6326 22.1129H84.8042V22.043C84.8042 20.6382 84.0358 19.9319 82.4913 19.9319H74.5124V17.5957H82.4447C84.0979 17.5957 85.3553 18.0148 86.2246 18.8531C87.1094 19.6603 87.5518 20.84 87.5518 22.3846V27.0337C87.5518 28.229 87.1482 29.1681 86.341 29.8511C85.6036 30.4798 84.5791 30.7903 83.2441 30.7903H77.6326V30.798ZM82.6543 24.4491H78.3001C76.8952 24.4491 76.1889 25.0468 76.1889 26.2343V26.6689C76.1889 27.8487 76.8875 28.4308 78.3001 28.4308H82.6543C84.0901 28.4308 84.812 27.8409 84.812 26.6689V26.2343C84.812 25.039 84.0901 24.4491 82.6543 24.4491Z" fill="#231815"/>
<path d="M95.5988 17.5957H98.2998C100.007 17.5957 101.358 18.0924 102.336 19.0859C103.314 20.0794 103.803 21.4609 103.803 23.2306V30.7903H101.055V23.3625C101.055 22.2604 100.838 21.4609 100.411 20.9564C99.8754 20.2967 99.107 19.9707 98.098 19.9707H95.7618C94.7839 19.9707 94.0232 20.2967 93.4722 20.9564C93.0763 21.4609 92.8745 22.2604 92.8745 23.3625V30.7903H90.127V23.2306C90.127 21.4609 90.6159 20.0794 91.5939 19.0859C92.5718 18.0924 93.9068 17.5957 95.6066 17.5957H95.5988Z" fill="#231815"/>
<path d="M116.474 29.0362C115.496 30.2159 114.285 30.798 112.826 30.798H111.134C109.605 30.798 108.394 30.3168 107.486 29.3544C106.632 28.4541 106.205 27.1734 106.205 25.528V17.5957H108.929V25.5512C108.929 26.5137 109.139 27.22 109.55 27.6624C110.024 28.1669 110.645 28.4152 111.405 28.4152H112.601C113.377 28.4152 114.005 28.1669 114.479 27.6624C114.906 27.22 115.123 26.5137 115.123 25.5512V17.5957H117.824V25.5512C117.824 26.5137 118.034 27.22 118.445 27.6624C118.918 28.1669 119.539 28.4152 120.3 28.4152H121.495C122.271 28.4152 122.9 28.1669 123.374 27.6624C123.8 27.22 124.018 26.5137 124.018 25.5512V17.5957H126.742V25.528C126.742 27.1812 126.3 28.4541 125.415 29.3544C124.514 30.3168 123.288 30.798 121.744 30.798H120.067C118.647 30.798 117.444 30.2082 116.466 29.0362H116.474Z" fill="#231815"/>
<path d="M134.807 19.9784C133.829 19.9784 133.068 20.3044 132.517 20.9641C132.121 21.4686 131.919 22.268 131.919 23.3702V30.7979H129.172V13.1948H131.919V18.395C132.711 17.8595 133.627 17.5956 134.644 17.5956H137.345C139.052 17.5956 140.403 18.0923 141.381 19.0858C142.359 20.0793 142.848 21.4608 142.848 23.2305V30.7902H140.1V23.3624C140.1 22.2603 139.883 21.4608 139.456 20.9563C138.92 20.2966 138.152 19.9706 137.143 19.9706H134.807V19.9784Z" fill="#231815"/>
<path d="M149.319 30.798C148.038 30.798 147.022 30.441 146.269 29.7192C145.508 28.9974 145.12 28.0737 145.12 26.9483V26.0092C145.12 24.8605 145.5 23.9291 146.269 23.215C147.014 22.4777 148.031 22.1129 149.319 22.1129H156.491V22.043C156.491 20.6382 155.722 19.9319 154.178 19.9319H146.199V17.5957H154.131C155.784 17.5957 157.042 18.0148 157.911 18.8531C158.796 19.6603 159.238 20.84 159.238 22.3846V27.0337C159.238 28.229 158.835 29.1681 158.028 29.8511C157.29 30.4798 156.266 30.7903 154.931 30.7903H149.319V30.798ZM154.341 24.4491H149.987C148.582 24.4491 147.875 25.0468 147.875 26.2343V26.6689C147.875 27.8487 148.574 28.4308 149.987 28.4308H154.341C155.777 28.4308 156.498 27.8409 156.498 26.6689V26.2343C156.498 25.039 155.777 24.4491 154.341 24.4491Z" fill="#231815"/>
<path d="M179.502 30.7977H173.93C172.176 30.7977 170.833 30.3398 169.917 29.424C169.017 28.5391 168.566 27.1731 168.566 25.3181V18.7596C168.566 16.8969 169.017 15.5153 169.917 14.615C170.817 13.7147 172.168 13.2412 173.93 13.2412H179.502C181.256 13.2412 182.599 13.6991 183.515 14.615C184.431 15.5153 184.889 16.8969 184.889 18.7596V25.3181C184.889 27.1654 184.431 28.5314 183.515 29.424C182.584 30.3243 181.249 30.7822 179.502 30.7977ZM179.316 28.415C180.356 28.415 181.109 28.12 181.582 27.5224C181.947 27.0179 182.134 26.2417 182.134 25.1862V18.9071C182.134 17.836 181.947 17.0521 181.582 16.5476C181.109 15.9345 180.356 15.6318 179.316 15.6318H174.093C173.068 15.6318 172.323 15.9345 171.85 16.5476C171.5 17.0521 171.322 17.836 171.322 18.9071V25.1862C171.322 26.2417 171.5 27.0179 171.85 27.5224C172.323 28.12 173.076 28.415 174.093 28.415H179.316Z" fill="#231815"/>
<path d="M201.506 30.798H192.727C191.09 30.7825 189.809 30.3091 188.878 29.3777C187.946 28.4618 187.48 27.1501 187.48 25.4348V23.0055C187.48 21.2824 187.946 19.9552 188.878 19.0393C189.809 18.108 191.09 17.6267 192.727 17.5957H201.506V19.9785H192.96C191.982 19.9785 191.253 20.2812 190.779 20.8943C190.43 21.3988 190.251 22.1439 190.251 23.1374V25.2951C190.251 26.2731 190.43 27.0104 190.779 27.5149C191.253 28.1126 191.982 28.4075 192.96 28.4075H201.506V30.7903V30.798Z" fill="#231815"/>
<path d="M218.091 21.492V22.4078C218.091 23.541 217.703 24.4646 216.919 25.1787C216.174 25.9005 215.157 26.2576 213.869 26.2576H206.72V26.3507C206.72 27.74 207.489 28.4385 209.033 28.4385H217.47V30.798H209.056C207.419 30.798 206.161 30.3867 205.277 29.564C204.407 28.7568 203.973 27.5848 203.973 26.0557V21.492C203.973 20.3433 204.353 19.4119 205.121 18.6978C205.866 17.9683 206.891 17.5957 208.195 17.5957H213.853C215.149 17.5957 216.174 17.9605 216.927 18.6978C217.703 19.4197 218.099 20.351 218.099 21.492H218.091ZM208.831 23.9213H213.209C214.629 23.9213 215.343 23.3315 215.343 22.1595V21.7248C215.343 20.5296 214.629 19.9397 213.209 19.9397H208.831C207.427 19.9397 206.72 20.5373 206.72 21.7248V22.1595C206.72 23.3392 207.427 23.9213 208.831 23.9213Z" fill="#231815"/>
<path d="M224.486 30.798C223.205 30.798 222.189 30.441 221.436 29.7192C220.675 28.9974 220.287 28.0737 220.287 26.9483V26.0092C220.287 24.8605 220.667 23.9291 221.436 23.215C222.181 22.4777 223.198 22.1129 224.486 22.1129H231.658V22.043C231.658 20.6382 230.889 19.9319 229.345 19.9319H221.366V17.5957H229.298C230.951 17.5957 232.209 18.0148 233.078 18.8531C233.963 19.6603 234.405 20.84 234.405 22.3846V27.0337C234.405 28.229 234.002 29.1681 233.195 29.8511C232.457 30.4798 231.433 30.7903 230.098 30.7903H224.486V30.798ZM229.508 24.4491H225.154C223.749 24.4491 223.042 25.0468 223.042 26.2343V26.6689C223.042 27.8487 223.741 28.4308 225.154 28.4308H229.508C230.944 28.4308 231.665 27.8409 231.665 26.6689V26.2343C231.665 25.039 230.944 24.4491 229.508 24.4491Z" fill="#231815"/>
<path d="M242.452 17.5957H245.153C246.861 17.5957 248.211 18.0924 249.189 19.0859C250.167 20.0794 250.656 21.4609 250.656 23.2306V30.7903H247.909V23.3625C247.909 22.2604 247.691 21.4609 247.264 20.9564C246.729 20.2967 245.961 19.9707 244.952 19.9707H242.615C241.637 19.9707 240.877 20.2967 240.326 20.9564C239.93 21.4609 239.728 22.2604 239.728 23.3625V30.7903H236.98V23.2306C236.98 21.4609 237.469 20.0794 238.447 19.0859C239.425 18.0924 240.76 17.5957 242.46 17.5957H242.452Z" fill="#231815"/>
</g>
<defs>
<clipPath id="clip0_245_928">
<rect width="250.658" height="44" fill="white"/>
</clipPath>
</defs>
</svg>
