<svg width="120" height="120" viewBox="0 0 120 120" fill="none" xmlns="http://www.w3.org/2000/svg">
<path d="M75.4872 109.841H42.3508C37.3403 109.841 33.053 106.096 32.3815 101.163L24.375 48.7597L27.7325 48.2431L35.739 100.672C36.2039 103.978 39.0449 106.432 42.3508 106.432H75.4872C78.7931 106.432 81.6341 103.953 82.099 100.672L90.1571 48.2173L93.5146 48.7338L85.4565 101.163C84.7592 106.096 80.4718 109.815 75.4872 109.815" fill="white"/>
<path d="M25.4124 36.5679C23.2171 36.5679 21.4092 38.35 21.4092 40.5453V42.7923C21.4092 44.9876 23.1913 46.7697 25.4124 46.7697H94.113C96.3083 46.7697 98.0904 44.9876 98.0904 42.7923V40.5453C98.0904 38.35 96.3083 36.5679 94.113 36.5679H25.4124ZM94.113 50.2047H25.4124C21.3317 50.2047 18 46.873 18 42.8181V40.5712C18 36.4905 21.3317 33.1846 25.4124 33.1846H94.113C98.1937 33.1846 101.5 36.5163 101.5 40.5712V42.8181C101.5 46.8989 98.1937 50.2047 94.113 50.2047Z" fill="white"/>
<path d="M30.3645 35.2772L27.0586 34.5023C29.1506 25.6952 36.9246 19.5483 45.99 19.5483H71.8173C80.8568 19.5483 88.6567 25.6952 90.7487 34.4765L87.4428 35.2772C85.7124 28.0197 79.2814 22.9575 71.8173 22.9575H45.99C38.5259 22.9575 32.0949 28.0197 30.3645 35.2772Z" fill="white"/>
<path d="M66.4027 21.6408L64.6464 14.59C64.6464 14.59 64.4398 14.4092 64.3107 14.4092H53.5149C53.3857 14.4092 53.2566 14.4867 53.1791 14.59L51.552 21.615L48.2461 20.8402L50.0023 13.3761C50.5705 11.9298 51.9652 11 53.5407 11H64.3365C65.912 11 67.2808 11.9298 67.8748 13.3761L67.9523 13.5827L69.7602 20.7885L66.4543 21.615L66.4027 21.6408Z" fill="white"/>
<path d="M50.3839 89.4114H46.9746C43.2039 89.4114 40.1562 86.3638 40.1562 82.593C40.1562 81.1983 40.5695 79.8295 41.396 78.6931L48.0077 69.2661L50.7971 71.229L44.2111 80.6559C43.7979 81.2241 43.5913 81.8956 43.5913 82.6188C43.5913 84.5042 45.1151 86.028 47.0005 86.028H50.4097V89.4372L50.3839 89.4114Z" fill="white"/>
<path d="M66.4436 70.3512L61.6913 63.5845C61.0457 62.6805 60.0126 62.1382 58.902 62.1382C57.7914 62.1382 56.7325 62.6805 56.1126 63.5845L54.4339 65.9864L51.6445 64.0235L53.3233 61.6216C54.5888 59.7879 56.6808 58.7031 58.902 58.7031C61.1231 58.7031 63.2151 59.7879 64.4807 61.6216L69.2329 68.3884L66.4436 70.3512Z" fill="white"/>
<path d="M70.8453 89.4114H55.5039V86.0022H70.8453C72.7307 86.0022 74.2545 84.4784 74.2545 82.593C74.2545 81.8957 74.0479 81.2242 73.6346 80.6302L70.148 75.6455L72.9373 73.6826L76.424 78.6673C77.2246 79.8295 77.6637 81.1725 77.6637 82.5672C77.6637 86.338 74.6161 89.3856 70.8453 89.3856" fill="white"/>
<path d="M60.4365 95.0419L53.1016 87.707L60.4365 80.3462L62.8643 82.774L57.9313 87.707L62.8643 92.64L60.4365 95.0419Z" fill="white"/>
<path d="M69.136 71.4099L59.0117 69.1629L59.7349 65.8312L66.5533 67.355L68.0771 60.5366L71.4088 61.2856L69.136 71.4099Z" fill="white"/>
<path d="M49.2216 78.9769L47.9819 72.0552L40.8794 72.5976L40.6211 69.1884L50.797 68.4136L52.5791 78.3829L49.2216 78.9769Z" fill="white"/>
</svg>
