<svg width="120" height="120" viewBox="0 0 120 120" fill="none" xmlns="http://www.w3.org/2000/svg">
<path d="M25.862 62.2816C18.7595 62.2816 13 56.5221 13 49.4196C13 42.3171 18.7595 36.5576 25.862 36.5576C28.7805 36.5576 31.5182 37.5132 33.791 39.2953L31.5182 42.188C29.891 40.9224 27.9282 40.2251 25.862 40.2251C20.7998 40.2251 16.6675 44.3575 16.6675 49.4196C16.6675 54.4817 20.7998 58.6141 25.862 58.6141V62.2816Z" fill="white"/>
<path d="M33.2207 71.4511H29.5532V57.8659L31.8518 58.4599C32.2392 58.5633 32.6783 58.5633 33.2207 58.5633C39.2901 58.5633 44.2489 53.6044 44.2489 47.535C44.2489 43.7642 42.3377 40.2775 39.161 38.2372L37.9729 37.4624L38.412 36.1194C38.412 36.1194 38.7477 35.0346 38.7477 33.7432C38.7477 29.1718 35.0286 25.4785 30.483 25.4785C25.9374 25.4785 22.2183 29.1976 22.2183 33.7432C22.2183 35.2929 22.6573 36.8167 23.4838 38.1339L20.3587 40.0967C19.1706 38.2114 18.5508 36.016 18.5508 33.7432C18.5508 27.1573 23.897 21.811 30.5088 21.811C37.1206 21.811 42.441 27.1573 42.441 33.7432C42.441 34.5697 42.3377 35.2929 42.2344 35.8869C45.8244 38.6763 47.9422 42.9119 47.9422 47.535C47.9422 55.6448 41.3563 62.2307 33.2465 62.2307V71.4252L33.2207 71.4511Z" fill="white"/>
<path d="M51.6104 62.2817C47.5814 62.2817 43.8622 60.4479 41.3828 57.2454L44.3013 54.9984C46.0576 57.297 48.7178 58.6142 51.6104 58.6142C56.6726 58.6142 60.8049 54.4818 60.8049 49.4197C60.8049 48.9031 60.7533 48.3866 60.6758 47.8701L55.2521 15.7151C54.9421 13.933 53.4183 12.6675 51.6362 12.6675C49.8542 12.6675 48.3045 13.9588 48.0204 15.7151L46.3416 25.5811L42.7258 24.9613L44.3788 15.1211C44.9728 11.5827 48.0204 9 51.6362 9C55.2521 9 58.2739 11.5827 58.8937 15.1211L64.3174 47.2502C64.4466 47.9475 64.4982 48.6965 64.4982 49.4197C64.4982 56.5222 58.7129 62.2817 51.6362 62.2817" fill="white"/>
<path d="M53.4214 60.4219H49.7539V71.4501H53.4214V60.4219Z" fill="white"/>
<path d="M71.8058 62.2811C67.2086 62.2811 62.9729 59.4401 60.1835 54.5071L63.3861 52.6992C65.504 56.4441 68.5774 58.6136 71.8058 58.6136C77.8752 58.6136 82.8341 51.2012 82.8341 42.0841C82.8341 32.9671 77.8752 25.5547 71.8058 25.5547C67.6735 25.5547 63.7994 29.1705 61.9398 34.775L58.4531 33.6128C60.8292 26.4845 66.0722 21.8872 71.8058 21.8872C79.9156 21.8872 86.5015 30.9526 86.5015 42.11C86.5015 53.2674 79.9156 62.3327 71.8058 62.3327" fill="white"/>
<path d="M73.6401 60.4219H69.9727V71.4501H73.6401V60.4219Z" fill="white"/>
<path d="M90.1947 62.2821C85.7525 62.2821 81.6459 60.6034 78.6758 57.5299L81.3102 54.973C83.583 57.3233 86.7339 58.6147 90.1947 58.6147C97.7621 58.6147 103.057 52.5711 103.057 43.9189C103.057 34.7503 93.8364 23.2829 90.2464 19.1764C88.4643 21.3717 85.2101 25.5299 82.2399 29.8947L79.2182 27.8285C83.6863 21.2942 88.7226 15.2507 88.7743 15.199L90.0914 13.6235L91.5119 15.1215C92.1318 15.7672 106.724 31.1861 106.724 43.9706C106.724 54.6114 99.7767 62.3596 90.1947 62.3596" fill="white"/>
<path d="M92.0308 60.4219H88.3633V71.4501H92.0308V60.4219Z" fill="white"/>
<path d="M62.6128 71.4502H58.9453V108.202H62.6128V71.4502Z" fill="white"/>
<path d="M59.6723 109.675C47.7143 100.454 40.5859 86.1717 40.5859 71.4502H44.2534C44.2534 85.0353 50.8652 98.2331 61.9193 106.756L59.6723 109.675Z" fill="white"/>
<path d="M25.9105 73.31C26.8661 91.7249 42.1559 106.395 60.7774 106.395C79.3988 106.395 94.6886 91.7249 95.6442 73.31H25.9105ZM60.7774 110.062C39.4957 110.062 22.1914 92.758 22.1914 71.4763V69.6426H99.3892V71.4763C99.3892 92.758 82.0849 110.062 60.8032 110.062" fill="white"/>
<path d="M85.9627 98.1304C81.4171 93.0941 71.5252 89.8398 60.7552 89.8398C49.9853 89.8398 40.0934 93.0941 35.5736 98.1046L32.8359 95.651C38.1047 89.814 48.7972 86.1724 60.7552 86.1724C72.7133 86.1724 83.4058 89.814 88.6745 95.6768L85.9368 98.1304H85.9627Z" fill="white"/>
<path d="M23.4261 99.7564C20.0685 95.469 17.6666 90.691 16.2461 85.603L19.7844 84.6216C21.0758 89.2705 23.2711 93.5836 26.3187 97.5094L23.4261 99.7564Z" fill="white"/>
<path d="M29.8633 106.395C29.1143 105.775 28.3653 105.103 27.668 104.432L30.199 101.771C30.8447 102.391 31.5162 102.985 32.2136 103.579L29.8633 106.395Z" fill="white"/>
<path d="M37.3303 111.483C36.4522 111.018 35.6257 110.502 34.7734 109.985L36.7363 106.886C37.5111 107.376 38.286 107.816 39.0866 108.28L37.3303 111.509V111.483Z" fill="white"/>
<path d="M102.871 92.1115L99.5391 90.536C99.9781 89.6321 100.366 88.7023 100.727 87.7983L104.162 89.0897C103.775 90.097 103.336 91.1042 102.871 92.1115Z" fill="white"/>
<path d="M105.619 84.4677L102.055 83.5896C102.287 82.6598 102.468 81.7042 102.623 80.7744L106.239 81.3426C106.084 82.3757 105.851 83.4346 105.619 84.4677Z" fill="white"/>
<path d="M95.075 40.4826C94.7392 39.6562 94.3002 38.9072 93.7578 38.3132L96.5213 35.8854C97.3478 36.8152 97.9935 37.8999 98.4842 39.1396L95.075 40.5085V40.4826Z" fill="white"/>
<path d="M96.0319 52.4147L93.4492 49.8062C94.8697 48.3857 95.6962 46.242 95.6962 43.8917H99.3637C99.3637 47.2235 98.1498 50.3227 96.0061 52.4147" fill="white"/>
<path d="M61.8876 109.674L59.6406 106.755C70.6947 98.2323 77.3065 85.0345 77.3065 71.4494H80.974C80.974 86.1709 73.8456 100.453 61.8876 109.674Z" fill="white"/>
</svg>
