<svg width="120" height="120" viewBox="0 0 120 120" fill="none" xmlns="http://www.w3.org/2000/svg">
<path d="M18.6691 63.429C18.5658 62.1893 18.4883 60.9237 18.4883 59.6582H22.2332C22.2332 60.7946 22.2849 61.9568 22.3882 63.0674L18.6691 63.4032V63.429Z" fill="white"/>
<path d="M100.876 59.6848H97.1315C97.1315 58.5484 97.0799 57.3862 96.9766 56.2498L100.696 55.9141C100.799 57.1538 100.876 58.4193 100.876 59.6848Z" fill="white"/>
<path d="M59.6803 108.369C46.121 108.369 33.2074 102.713 23.987 92.7952L18.7441 96.4627C18.0726 96.9017 17.3494 97.1342 16.6004 97.1342C14.5342 97.1342 12.8555 95.4554 12.8555 93.3892V93.1826L14.3018 72.5466C14.4826 70.1963 16.9103 68.5176 19.1573 69.2407L38.3212 75.3876C39.8708 75.9042 40.9297 77.3247 40.9297 78.9518C40.9297 80.1657 40.3357 81.3021 39.3543 81.9994L33.2848 86.2609C40.284 93.2084 49.7885 97.1342 59.6545 97.1342C79.0766 97.1342 95.0895 82.5934 96.9233 63.2746L100.642 63.6362C98.6279 84.8662 80.9878 100.879 59.6287 100.879C47.9806 100.879 36.8232 95.8945 28.9975 87.2165L27.577 85.641L37.1331 78.926L17.9693 72.7791L16.5229 93.3634L24.5036 87.7589L25.6141 89.0244C34.163 98.9163 46.5601 104.572 59.6028 104.572C84.3712 104.572 104.542 84.4013 104.542 59.633C104.542 57.3085 104.362 54.9841 104.026 52.7113L107.719 52.1431C108.106 54.6225 108.287 57.1277 108.287 59.633C108.287 86.4675 86.4374 108.317 59.6028 108.317" fill="white"/>
<path d="M14.745 59.6844H11C11 32.8499 32.8499 11 59.6844 11C72.0815 11 83.7813 15.6231 92.8208 24.0169L98.5545 19.3422C99.2518 18.774 100.052 18.4899 100.905 18.4899C102.971 18.4899 104.65 20.1687 104.65 22.2349V42.845C104.65 44.9112 102.971 46.59 100.905 46.59C100.724 46.59 100.337 46.5383 100.337 46.5383L79.6231 42.7417C77.841 42.3801 76.5755 40.8563 76.5755 39.1001C76.5755 38.0153 77.0662 36.9564 77.9443 36.2333L84.0654 31.2486C77.2986 25.4375 68.724 22.2607 59.7361 22.2607C40.3914 22.2607 24.3785 36.7498 22.4673 55.9653L18.7482 55.6037C20.8402 34.4512 38.4544 18.5157 59.7361 18.5157C70.4027 18.5157 80.527 22.5964 88.2494 29.9572L89.7732 31.4294L80.3462 39.1259L100.931 42.845V22.2349L92.64 29.0533L91.452 27.8652C82.9548 19.4197 71.6941 14.745 59.7361 14.745C34.9677 14.745 14.7966 34.9161 14.7966 59.6844" fill="white"/>
<path d="M60.7685 82.8C58.8315 79.8815 57.8242 76.3948 57.8242 72.779C57.8242 63.7652 62.7314 59.2455 67.0962 55.2422C69.7564 52.8145 72.0292 50.6966 72.9073 47.8815L74.0696 44.0332L76.2649 47.4166C76.6006 47.9331 76.9364 48.4497 77.2721 48.9404C79.6741 52.5562 82.1793 56.3012 82.1793 61.5441C82.1793 65.3407 81.4562 68.7499 80.0357 71.7201C79.6999 72.4432 79.2867 73.1406 78.8734 73.7862L75.7225 71.7459C76.0583 71.2035 76.394 70.6611 76.6523 70.0671C77.8404 67.6135 78.4344 64.7467 78.4344 61.5183C78.4344 57.9025 76.8331 55.0615 74.9477 52.1946C73.5272 54.3899 71.5643 56.1979 69.6273 57.9799C65.4949 61.7766 61.5692 65.3665 61.5692 72.7531C61.5692 75.6458 62.3698 78.4093 63.8936 80.7079L60.7685 82.7741V82.8Z" fill="white"/>
<path d="M59.2749 69.4735C51.8367 64.5922 46.5938 60.2273 46.5938 48.4501C46.5938 43.8529 47.8851 37.1378 49.6155 32.7729L53.1022 34.1418C51.7592 37.551 50.3645 43.8529 50.3645 48.4243C50.3645 58.3678 54.5227 61.8286 61.367 66.3226L59.3008 69.4477L59.2749 69.4735Z" fill="white"/>
<path d="M52.5074 63.4292C45.0174 63.4292 39.8262 62.9901 35.668 56.9982L38.7414 54.8545C41.5824 58.961 44.6817 59.6584 52.4815 59.6584V63.4033L52.5074 63.4292Z" fill="white"/>
<path d="M62.611 79.4164L59.0469 78.2542C61.9912 69.3179 70.4367 62.6029 80.0186 61.5439L80.4319 65.2631C72.2704 66.167 65.0905 71.849 62.611 79.4164Z" fill="white"/>
<path d="M62.4225 83.6771H62.1384C46.3579 81.9209 35.3555 70.531 35.3555 55.9386C35.3555 45.6852 40.4176 37.5754 50.4128 31.8418L52.5564 30.6021L53.1505 33.0298C54.7001 39.3575 58.0576 41.9661 61.596 44.7296C65.0052 47.3898 68.5435 50.1275 70.2739 55.9644L66.684 57.0492C65.2893 52.3744 62.4999 50.205 59.2974 47.6997C55.9915 45.1428 52.324 42.2502 50.232 36.3615C42.8454 41.2687 39.0746 47.8547 39.0746 55.9644C39.0746 68.6973 48.3724 78.305 62.2417 79.9322C68.3886 78.7183 73.0375 75.9031 75.6719 71.8224C76.0076 71.28 76.3434 70.7376 76.6016 70.1436L79.985 71.7707C79.6493 72.4939 79.236 73.1912 78.8228 73.8369C75.5685 78.8732 69.9898 82.2566 62.6807 83.6513L62.3966 83.7029L62.4225 83.6771Z" fill="white"/>
</svg>
