<svg width="120" height="120" viewBox="0 0 120 120" fill="none" xmlns="http://www.w3.org/2000/svg">
<path d="M78.0195 92.9461L63.582 78.5086L71.1494 70.9412L78.0195 77.8113L88.1179 67.687L90.5457 70.0889L78.0195 82.641L71.1494 75.7968L68.4376 78.5086L78.0195 88.0906L89.8742 76.2358L92.302 78.6378L78.0195 92.9461Z" fill="white"/>
<path d="M96.7153 69.4136L92.8984 73.2305L95.3274 75.6594L99.1443 71.8425L96.7153 69.4136Z" fill="white"/>
<path d="M65.9812 45.9141H26.543V49.3491H65.9812V45.9141Z" fill="white"/>
<path d="M65.9812 37.8818H26.543V41.3169H65.9812V37.8818Z" fill="white"/>
<path d="M60.8416 52.7847H26.543V56.2197H60.8416V52.7847Z" fill="white"/>
<path d="M40.2572 69.9341H26.543V73.3691H40.2572V69.9341Z" fill="white"/>
<path d="M47.1577 69.9341H43.7227V73.3691H47.1577V69.9341Z" fill="white"/>
<path d="M57.4272 66.0592C57.453 71.922 57.8404 80.2642 63.5225 89.5878C68.9204 98.4466 78.1665 102.372 79.7161 102.527C81.3174 102.372 90.7186 98.4724 96.1165 89.5878C101.798 80.2642 102.005 72.1544 102.005 66.0592C91.5967 62.7791 82.8671 54.9018 79.7161 51.8025C76.5394 54.9018 67.8098 62.7791 57.4272 66.0592ZM79.7161 105.937C77.3142 105.937 66.725 101.417 60.5781 91.3699C53.9922 80.5483 53.9922 71.0697 53.9922 64.7937V63.5023L55.2577 63.1407C67.7323 59.6799 78.3731 48.3159 78.4764 48.1867L79.742 46.8179L81.0075 48.1867C81.0075 48.1867 91.7775 59.6799 104.226 63.1407L105.492 63.5023V65.336C105.492 71.5088 105.492 80.8582 99.1124 91.3699C92.9914 101.443 82.2214 105.937 79.7678 105.937" fill="white"/>
<path d="M77.9938 20.1904H21.4062V23.6255H77.9938V20.1904Z" fill="white"/>
<path d="M78.0201 44.2093H74.5851V30.495H23.1372C18.4108 30.495 14.5625 26.6468 14.5625 21.9204C14.5625 17.194 18.4108 13.3457 23.1372 13.3457H78.0201V16.7807H23.1372C20.2962 16.7807 17.9975 19.0794 17.9975 21.9204C17.9975 24.7614 20.2962 27.06 23.1372 27.06H75.4374C76.8579 27.06 78.0201 28.2222 78.0201 29.6427V44.2093Z" fill="white"/>
<path d="M55.7038 92.2222H23.1098C18.3834 92.2222 14.5352 88.3739 14.5352 83.6476V21.8945H17.9702V83.6476C17.9702 86.4886 20.2688 88.7872 23.1098 88.7872H55.7038V92.2222Z" fill="white"/>
<path d="M26.5678 80.2134H23.1328V83.6484H26.5678V80.2134Z" fill="white"/>
<path d="M33.4155 80.2134H29.9805V83.6484H33.4155V80.2134Z" fill="white"/>
<path d="M40.2866 80.2134H36.8516V83.6484H40.2866V80.2134Z" fill="white"/>
</svg>
