<svg width="120" height="120" viewBox="0 0 120 120" fill="none" xmlns="http://www.w3.org/2000/svg">
<path d="M26.9757 70.0818C24.0831 70.0818 21.7328 72.5613 21.7328 75.6089V78.5274C21.7328 81.575 24.0831 84.0544 26.9757 84.0544C29.8684 84.0544 32.2187 81.575 32.2187 78.5274V75.6089C32.2187 72.5613 29.8684 70.0818 26.9757 70.0818ZM26.9757 87.5153C22.1718 87.5153 18.2461 83.4604 18.2461 78.5015V75.5831C18.2461 70.6242 22.146 66.5693 26.9757 66.5693C31.8054 66.5693 35.7053 70.6242 35.7053 75.5831V78.5015C35.7053 83.4604 31.8054 87.5153 26.9757 87.5153Z" fill="white"/>
<path d="M40.9193 110.218H37.4326V99.7575C37.4326 96.8648 35.0823 94.5145 32.1897 94.5145H21.7296C18.837 94.5145 16.4867 96.8648 16.4867 99.7575V110.218H13V99.7575C13 94.9536 16.9257 91.0278 21.7296 91.0278H32.1897C36.9935 91.0278 40.9193 94.9536 40.9193 99.7575V110.218Z" fill="white"/>
<path d="M75.8372 110.217H72.3505V98.0011C72.3505 94.1528 69.2254 91.0277 65.3771 91.0277H54.9171C51.0688 91.0277 47.9437 94.1528 47.9437 98.0011V110.217H44.457V98.0011C44.457 92.2416 49.1576 87.541 54.9171 87.541H65.3771C71.1624 87.541 75.8372 92.2416 75.8372 98.0011V110.217Z" fill="white"/>
<path d="M60.1124 63.0824C56.2641 63.0824 53.139 66.2075 53.139 70.0558V73.5425C53.139 77.4682 56.2125 80.5159 60.1124 80.5159C64.0123 80.5159 67.0858 77.3908 67.0858 73.5425V70.0558C67.0858 66.2075 63.9607 63.0824 60.1124 63.0824ZM60.1124 84.0284C54.3271 84.0284 49.6523 79.3278 49.6523 73.5683V70.0816C49.6523 64.2963 54.3529 59.6216 60.1124 59.6216C65.8719 59.6216 70.5724 64.3221 70.5724 70.0816V73.5683C70.5724 79.3536 65.8719 84.0284 60.1124 84.0284Z" fill="white"/>
<path d="M93.2687 70.0818C90.376 70.0818 88.0257 72.5613 88.0257 75.6089V78.5274C88.0257 81.575 90.376 84.0544 93.2687 84.0544C96.1613 84.0544 98.5116 81.575 98.5116 78.5274V75.6089C98.5116 72.5613 96.1613 70.0818 93.2687 70.0818ZM93.2687 87.5153C88.4648 87.5153 84.5391 83.4604 84.5391 78.5015V75.5831C84.5391 70.6242 88.439 66.5693 93.2687 66.5693C98.0984 66.5693 101.998 70.6242 101.998 75.5831V78.5015C101.998 83.4604 98.0984 87.5153 93.2687 87.5153Z" fill="white"/>
<path d="M107.24 110.218H103.753V99.7575C103.753 96.8648 101.403 94.5145 98.51 94.5145H88.0499C85.1573 94.5145 82.807 96.8648 82.807 99.7575V110.218H79.3203V99.7575C79.3203 94.9536 83.2461 91.0278 88.0499 91.0278H98.51C103.314 91.0278 107.24 94.9536 107.24 99.7575V110.218Z" fill="white"/>
<path d="M61.8578 10.731H58.3711V61.3266H61.8578V10.731Z" fill="white"/>
<path d="M89.7823 38.6504H30.457V42.1371H89.7823V38.6504Z" fill="white"/>
<path d="M71.1564 61.3528L68.3154 59.3124C72.1895 53.9404 74.049 47.7418 74.049 40.4069C74.049 22.4827 63.6923 14.7604 59.25 12.2551L60.9546 9.20752C65.9393 11.9969 77.5615 20.6232 77.5615 40.4069C77.5615 48.5166 75.4695 55.3609 71.1564 61.3528Z" fill="white"/>
<path d="M60.1019 28.1904C50.2359 28.1904 38.9494 25.5302 37.5547 19.7191L40.9381 18.8926C41.5063 21.2687 48.6604 24.7037 60.1019 24.7037C71.5434 24.7037 78.6976 21.2687 79.2658 18.8926L82.6491 19.6932C81.2544 25.5302 69.9679 28.1646 60.1019 28.1646" fill="white"/>
<path d="M44.4797 67.6538C34.7428 62.0492 28.6992 51.615 28.6992 40.406C28.6992 23.0759 42.8009 9 60.1052 9C77.4095 9 91.5112 23.1017 91.5112 40.406C91.5112 51.615 85.4676 62.0492 75.7565 67.6538L74.0261 64.632C82.6782 59.6473 88.0245 50.3753 88.0245 40.406C88.0245 25.0129 75.4983 12.4867 60.1052 12.4867C44.7121 12.4867 32.1859 25.0129 32.1859 40.406C32.1859 50.3753 37.558 59.6473 46.2101 64.632L44.4797 67.6538Z" fill="white"/>
<path d="M49.0809 61.3523C44.7678 55.3604 42.6758 48.5162 42.6758 40.4064C42.6758 20.6227 54.2722 11.9964 59.2827 9.20703L60.9873 12.2547C56.5192 14.7341 46.1625 22.4564 46.1625 40.4064C46.1625 47.7672 48.0479 53.9399 51.8961 59.312L49.0551 61.3523H49.0809Z" fill="white"/>
<path d="M79.2658 61.9209C78.6976 59.5448 71.5434 56.1097 60.1019 56.1097C48.6604 56.1097 41.5063 59.5448 40.9381 61.9209L37.5547 61.0944C38.9494 55.2833 50.2359 52.623 60.1019 52.623C69.9679 52.623 81.2544 55.2833 82.6491 61.0944L79.2658 61.9209Z" fill="white"/>
<path d="M98.5079 40.406H95.0212C95.0212 33.536 93.0325 26.8983 89.2617 21.1905L92.1802 19.2793C96.3384 25.5553 98.5079 32.8644 98.5079 40.406Z" fill="white"/>
<path d="M84.1024 15.0442C83.5342 14.5018 82.9402 13.9595 82.3203 13.4688L84.5415 10.7827C85.213 11.3509 85.8586 11.9191 86.5043 12.5131L84.1024 15.0442Z" fill="white"/>
<path d="M22.7377 49.1363C22.0662 46.2953 21.7305 43.351 21.7305 40.4067C21.7305 37.4624 22.0404 34.8022 22.6344 32.0903L26.0436 32.8393C25.5013 35.3187 25.2172 37.8498 25.2172 40.4067C25.2172 43.0928 25.5271 45.753 26.1211 48.3357L22.7119 49.1363H22.7377Z" fill="white"/>
<path d="M25.2184 56.393C24.8052 55.489 24.4436 54.5851 24.082 53.6553L27.3621 52.4414C27.672 53.2937 28.0078 54.1202 28.3952 54.9208L25.2184 56.3671V56.393Z" fill="white"/>
</svg>
