<svg width="89" height="93" viewBox="0 0 89 93" fill="none" xmlns="http://www.w3.org/2000/svg">
<g clip-path="url(#clip0_770_5335)">
<path d="M36.3772 70.261L32.5891 72.5604L32.3323 72.3049C31.305 71.283 29.5073 69.0474 29.0578 65.5024V65.3746V65.2469C29.3788 64.5124 29.6036 63.7459 29.7962 62.9155L29.8604 62.6281L30.1493 62.5642L83.2469 51.4821C85.9756 50.9073 87.966 48.4801 87.966 45.7016C87.966 45.2864 87.9018 44.8393 87.8055 44.3602L79.7798 10.8585C79.1378 8.20776 76.7622 6.35543 74.0335 6.35543C73.6162 6.35543 73.2309 6.38736 72.8457 6.48317L53.841 10.3475L53.7126 9.93235C51.9469 3.9921 46.5858 0 40.4221 0C32.7496 0 26.4896 6.22768 26.4896 13.8606C26.4896 14.2438 26.5538 14.5951 26.5859 14.9464L26.6822 15.8087L18.3998 17.6291C15.6711 18.204 13.6807 20.6312 13.6807 23.4097C13.6807 23.8568 13.7449 24.272 13.8412 24.751L15.2858 30.8829L15.029 31.0745C13.8733 31.9368 12.3003 33.2143 11.1767 34.3001C8.31957 37.0467 7.4207 38.2922 6.68234 40.3362C5.30193 44.2006 4.08203 48.1288 4.08203 53.6858C4.08203 61.638 9.15423 71.5065 17.9824 80.7682L18.3998 81.1834L15.35 83.0357C14.2906 83.5148 13.6807 84.4409 13.6807 85.5268C13.6807 85.942 13.777 86.3571 14.0017 86.7723L17.3725 92.9361L19.3307 91.8822L15.7674 85.3352L16.1526 85.1116L37.4045 72.1453L41.4494 78.8839L43.3755 77.7342L39.6517 71.5385C38.9775 70.2929 37.6292 69.75 36.313 70.1971L36.3772 70.261ZM40.4863 2.23558C46.9389 2.23558 52.1716 7.44128 52.1716 13.8606C52.1716 15.17 51.9469 16.4475 51.4975 17.693L51.337 18.1401L54.1299 23.9207H46.329L46.0722 24.0484C44.3707 25.0065 42.4125 25.5175 40.4542 25.5175C34.0016 25.5175 28.7689 20.3118 28.7689 13.8925C28.7689 7.47321 34.0016 2.26751 40.4542 2.26751L40.4863 2.23558ZM27.2601 18.0124L27.3885 18.3956C29.3467 23.9526 34.6116 27.6892 40.4863 27.6892C42.7014 27.6892 44.9165 27.1463 46.8426 26.1562L47.0673 26.0924H57.7575L53.7768 17.9485L53.841 17.7569C54.2262 16.4794 54.4188 15.138 54.4188 13.7967C54.4188 13.637 54.4188 13.4773 54.3867 13.3177C54.3867 13.1899 54.3546 13.0302 54.3546 12.9025V12.4873L54.7399 12.3915L73.3914 8.591C75.3176 8.17582 77.2437 9.42136 77.6932 11.3056L85.7188 44.7754C85.783 45.0948 85.8472 45.3503 85.8472 45.6058C85.8472 47.3304 84.5952 48.8314 82.8938 49.1827L30.3098 60.137V59.4983C30.4382 58.0931 30.4382 56.5282 30.4382 55.1229C30.4382 50.8753 30.984 48.6398 32.3002 43.2744L32.3644 43.0189C32.6212 41.965 32.9101 40.7833 33.2311 39.4739C33.3275 39.1226 33.6164 37.5258 33.6164 36.8231C33.6164 34.0127 31.305 31.7133 28.48 31.7133C27.87 31.7133 27.1317 31.9049 26.4575 32.2242L25.9118 32.4797L22.4768 18.8747L27.228 17.8207L27.2601 18.0124ZM18.9455 19.8328L20.3259 19.5453L24.114 34.5556L24.0177 34.7153C23.8251 35.0347 23.6325 35.354 23.472 35.7373C22.6373 37.5896 21.8668 39.4739 21.0964 41.5498L20.5506 43.0189L16.1205 24.3039C16.0563 23.9845 16.0242 23.7291 16.0242 23.4736C16.0242 21.749 17.2762 20.2479 18.9776 19.8966L18.9455 19.8328ZM20.3901 80.0017L20.1333 79.7143C11.5298 70.8358 6.36131 61.1271 6.36131 53.6538C6.36131 48.4801 7.54911 44.7435 8.83321 41.0388C9.41105 39.442 10.021 38.5158 12.7818 35.865C13.3918 35.2902 14.1943 34.5876 15.2858 33.6933L15.8958 33.2143L19.1381 46.9471V47.0749C17.9182 50.7476 17.2762 53.4942 17.0515 54.5161L19.2344 54.9633C19.6839 52.9832 21.61 45.1906 25.4623 36.5357C26.3612 34.5556 27.8058 34.0127 28.4479 34.0127C30.053 34.0127 31.3371 35.2902 31.3371 36.887C31.3371 37.2383 31.1124 38.5158 30.984 39.0268C30.6308 40.4639 30.3419 41.7095 30.053 42.8273C28.7368 48.2565 28.1268 50.7157 28.1268 55.2188C28.1268 61.2548 28.1268 64.9275 23.2152 69.3668L24.6919 71.0594C25.4302 70.3887 26.1044 69.6861 26.8106 68.8238L27.3564 68.1851L27.6453 68.9516C28.4158 71.0275 29.4751 72.4327 30.2135 73.295L30.5987 73.7102L20.358 79.9378L20.3901 80.0017Z" fill="#FF6600"/>
<path d="M45.1096 9.26172L38.8817 15.4575L35.864 12.4554L34.291 14.0522L38.8817 18.6192L46.6826 10.8586L45.1096 9.26172Z" fill="#FF6600"/>
<path d="M42.4132 40.3999L42.5416 40.847L45.6876 52.8872L47.8706 52.3124L44.7246 40.3041C44.4356 39.0586 43.3442 38.1963 42.0922 38.1963C41.8353 38.1963 41.6106 38.2602 41.4822 38.2921L35.8643 39.6654L36.41 41.8371L42.4132 40.368V40.3999Z" fill="#FF6600"/>
<path d="M57.629 74.8916H55.3818V77.1272H57.629V74.8916Z" fill="#FF6600"/>
<path d="M64.0499 78.0537H61.8027V80.2893H64.0499V78.0537Z" fill="#FF6600"/>
<path d="M70.4386 79.6504H68.1914V81.886H70.4386V79.6504Z" fill="#FF6600"/>
<path d="M83.2472 74.8916H81V77.1272H83.2472V74.8916Z" fill="#FF6600"/>
<path d="M86.4571 68.5049H84.21V70.7405H86.4571V68.5049Z" fill="#FF6600"/>
<path d="M76.8585 78.0537H74.6113V80.2893H76.8585V78.0537Z" fill="#FF6600"/>
<path d="M88.0626 62.1494H85.8154V64.385H88.0626V62.1494Z" fill="#FF6600"/>
<path d="M14.3878 6.3877H12.1406V8.62327H14.3878V6.3877Z" fill="#FF6600"/>
<path d="M3.1837 17.5332H0.936523V19.7688H3.1837V17.5332Z" fill="#FF6600"/>
<path d="M6.39366 9.54883H4.14648V11.7844H6.39366V9.54883Z" fill="#FF6600"/>
<path d="M22.4132 9.54883H20.166V11.7844H22.4132V9.54883Z" fill="#FF6600"/>
<path d="M6.39366 25.4854H4.14648V27.7209H6.39366V25.4854Z" fill="#FF6600"/>
<path d="M86.4571 55.7617H84.21V57.9973H86.4571V55.7617Z" fill="#FF6600"/>
<path d="M54.4191 68.5049H52.1719V70.7405H54.4191V68.5049Z" fill="#FF6600"/>
<path d="M52.8146 62.1494H50.5674V64.385H52.8146V62.1494Z" fill="#FF6600"/>
<path d="M53.2638 51.4498L55.4146 50.9069L51.0808 34.2358L58.4323 32.4474L62.6377 49.9168L64.8207 49.4058L60.7437 32.3835C60.4547 31.1699 59.3633 30.3076 58.1113 30.3076C57.8544 30.3076 57.6939 30.3396 57.5013 30.4034L51.0166 32.0003C49.8288 32.3196 48.9941 33.4055 48.9941 34.6191C48.9941 34.8107 48.9941 35.0343 49.0583 35.2578L53.2638 51.4817V51.4498Z" fill="#FF6600"/>
<path d="M69.9892 48.4477L72.1722 47.9048L65.527 21.4931L72.8464 19.7046L79.5879 46.8828L81.7709 46.3399L75.1577 19.6088C74.8688 18.3633 73.7773 17.501 72.5253 17.501C72.2685 17.501 72.108 17.5329 71.9475 17.5968L65.4307 19.1936C64.2429 19.513 63.4082 20.5988 63.4082 21.8124C63.4082 21.9721 63.4082 22.1957 63.4724 22.4192L69.9892 48.4158V48.4477Z" fill="#FF6600"/>
</g>
<defs>
<clipPath id="clip0_770_5335">
<rect width="87.1263" height="93" fill="white" transform="translate(0.936523)"/>
</clipPath>
</defs>
</svg>
