<svg width="84" height="72" viewBox="0 0 84 72" fill="none" xmlns="http://www.w3.org/2000/svg">
<g clip-path="url(#clip0_770_5308)">
<path d="M78.9279 13.4815L80.8065 11.9776C77.2371 7.54643 72.5407 4.02834 67.2269 1.77246L66.3145 4.00148C71.2525 6.09622 75.6269 9.37261 78.9547 13.4815H78.9279Z" fill="#FF6600"/>
<path d="M84.0002 16.7046C83.6245 16.0332 83.222 15.3887 82.8194 14.7441L80.8066 16.0869C81.1824 16.6509 81.5312 17.2686 81.8801 17.8863L84.0002 16.7315V16.7046Z" fill="#FF6600"/>
<path d="M53.0838 4.80763C43.1541 4.80763 35.425 9.58793 31.8557 17.8863L31.7752 18.0475H26.5688C26.3541 18.0475 26.1662 18.0743 25.9515 18.1012L25.6295 18.1549L25.549 18.1012L5.85057 3.30371L4.40137 5.23732L22.8921 19.0948L22.5969 19.3097C20.6646 20.6525 19.5106 22.8278 19.5106 25.1642V42.8352C19.5106 44.0706 19.8595 45.2791 20.5304 46.407L20.6646 46.6487L20.3963 46.783L4.53555 54.7054L5.60903 56.8539L22.3554 48.4749L22.4895 48.5823C23.6972 49.4417 25.1196 49.8983 26.5956 49.8983H29.8161V54.598C29.8161 58.5189 33.0097 61.6879 36.9011 61.6879H41.2755C43.0736 61.6879 44.5228 63.1381 44.5228 64.9374V71.9736H46.9381V64.9374C46.9381 61.8222 44.3886 59.2709 41.2755 59.2709H36.9011C34.3247 59.2709 32.2046 57.1762 32.2046 54.598V49.8983H38.3503C40.6314 49.8983 42.4832 48.0452 42.4832 45.7625V39.6126H78.74L78.6327 39.9617C77.6665 42.9695 76.1368 45.7356 74.0972 48.1795L73.0237 49.4149C65.1873 58.4652 62.2352 61.9027 62.1816 72.0005H64.5969C64.6506 62.789 67.0391 59.996 74.8487 50.9994L75.949 49.7371C80.0819 44.7957 82.2557 38.8337 82.2557 32.5227C82.2557 17.2418 69.1592 4.80763 53.0838 4.80763ZM28.34 47.5081H26.5956C24.0193 47.5081 21.8991 45.4134 21.8991 42.8352V25.1642C21.8991 22.5861 23.9924 20.4645 26.5956 20.4645H28.34V47.5081ZM40.1215 45.7625C40.1215 46.7293 39.3432 47.5081 38.3771 47.5081H30.7554V20.4645H38.3771C39.3432 20.4645 40.1215 21.2433 40.1215 22.2101V28.5212L39.9336 28.5749C37.4646 29.2194 35.7202 31.4484 35.7202 33.9997C35.7202 36.551 37.4646 38.78 39.9336 39.4246L40.1215 39.4783V45.7894V45.7625ZM79.7867 31.3947C79.7867 31.7707 79.8404 32.1467 79.8404 32.5227C79.8404 33.9997 79.7062 35.5036 79.411 36.9807L79.3573 37.1955H41.3023C39.5311 37.1955 38.0819 35.7453 38.0819 33.9729C38.0819 32.2004 39.5311 30.7502 41.3023 30.7502H79.733L79.7867 31.3679V31.3947ZM79.4646 28.36H42.5368V22.2101C42.5368 19.9274 40.6851 18.0743 38.4039 18.0743H34.4589L34.6467 17.6983C38.055 10.9576 44.6301 7.25149 53.1106 7.25149C66.0729 7.25149 77.1298 16.0064 79.411 28.0915L79.4646 28.4137V28.36Z" fill="#FF6600"/>
<path d="M1.4492 0L0 1.93361L1.58339 3.11526L3.00575 1.18165L1.4492 0Z" fill="#FF6600"/>
<path d="M5.74792 17.5755L4.53223 19.6641L6.27147 20.6778L7.48716 18.5893L5.74792 17.5755Z" fill="#FF6600"/>
<path d="M11.4756 20.9326L10.2588 23.0205L13.6898 25.0228L14.9066 22.9349L11.4756 20.9326Z" fill="#FF6600"/>
<path d="M5.04291 38.5576L3.52344 38.8955L4.04745 41.255L5.56692 40.917L5.04291 38.5576Z" fill="#FF6600"/>
<path d="M15.3288 36.2744L9.19824 37.6367L9.72184 39.9963L15.8524 38.634L15.3288 36.2744Z" fill="#FF6600"/>
<path d="M1.91614 56.0311L0.117188 56.9346L1.20056 59.0948L2.99951 58.1914L1.91614 56.0311Z" fill="#FF6600"/>
</g>
<defs>
<clipPath id="clip0_770_5308">
<rect width="84" height="72" fill="white"/>
</clipPath>
</defs>
</svg>
