<svg width="110" height="69" viewBox="0 0 110 69" fill="none" xmlns="http://www.w3.org/2000/svg">
<g clip-path="url(#clip0_770_5322)">
<path d="M78.1364 53.6757C81.7457 53.6757 84.6783 56.5681 84.6783 60.128C84.6783 63.6878 81.7457 66.5802 78.1364 66.5802H51.8841C48.2748 66.5802 45.3422 63.6878 45.3422 60.128C45.3422 56.5681 48.2748 53.6757 51.8841 53.6757H55.6063V51.2283H51.8841C48.867 51.2283 46.0754 52.7023 44.3835 55.1775L44.1861 55.4835H10.6588L10.4332 55.2054C9.10792 53.5367 7.61343 51.6455 4.25788 51.6455C1.77647 51.6455 0 53.0639 0 55.0385C0 55.4 0.0563958 55.7894 0.197385 56.1231L3.18636 64.1884C3.91951 66.1908 5.86516 67.5258 8.0082 67.5258H46.9213L47.0905 67.637C48.5568 68.527 50.1923 69.0276 51.8559 69.0276H78.1082C81.7175 69.0276 84.9885 66.9139 86.3984 63.6044L86.9059 62.4363L87.6391 63.4931C89.3309 65.9684 92.1225 67.4702 95.1397 67.4702H100.977C105.94 67.4702 110 63.4931 110 58.5705C110 53.6479 105.968 49.6709 100.977 49.6709H95.1397C91.5304 49.6709 88.2594 51.8124 86.8495 55.0941L86.342 56.29L85.6088 55.2332C83.9169 52.758 81.1254 51.2561 78.1082 51.2561H68.3235V53.7035H78.1082L78.1364 53.6757ZM8.0082 65.0784C6.90848 65.0784 5.89336 64.3831 5.52679 63.3541L2.39682 54.8716L2.707 54.5657C2.93258 54.3432 3.52474 54.0929 4.28608 54.0929C6.34453 54.0929 7.13407 55.0107 8.51577 56.735C8.71315 56.9853 8.91054 57.2356 9.10792 57.4859L9.47449 57.9309H43.1428L43.03 58.7374C42.9454 59.1824 42.889 59.6552 42.889 60.128C42.889 61.4629 43.2274 62.7979 43.8759 64.0772L44.3835 65.0784H8.0082ZM95.1679 52.0905H101.005C104.614 52.0905 107.547 54.9829 107.547 58.5427C107.547 62.1026 104.614 64.995 101.005 64.995H95.1679C91.5586 64.995 88.626 62.1026 88.626 58.5427C88.626 54.9829 91.5586 52.0905 95.1679 52.0905Z" fill="#FF6600"/>
<path d="M62.0915 52.3135C64.9113 52.3135 67.2235 50.033 67.2235 47.2519C67.2235 46.1116 66.8288 45.027 66.0956 44.1092L59.4409 35.9048V30.7041H56.9595V36.767L64.15 45.6666C64.5447 46.1672 64.7421 46.7234 64.7421 47.2797C64.7421 48.7259 63.5578 49.8939 62.0915 49.8939C61.302 49.8939 60.5406 49.5324 60.0331 48.8927L52.2505 39.2978C51.8839 38.7972 51.6865 38.2688 51.6865 37.6848V30.7041H49.2051V37.6848C49.2051 38.7972 49.5998 39.8819 50.3048 40.7996L58.1156 50.4224C59.1025 51.6461 60.5406 52.3413 62.1197 52.3413L62.0915 52.3135Z" fill="#FF6600"/>
<path d="M19.6785 5.5995L17.9238 7.33008L22.8687 12.2071L24.6233 10.4766L19.6785 5.5995Z" fill="#FF6600"/>
<path d="M47.7959 0H45.3145V6.28537H47.7959V0Z" fill="#FF6600"/>
<path d="M45.3145 0H47.7959V6.28537H45.3145V0Z" fill="#FF6600"/>
<path d="M18.611 32.623H12.2383V35.0704H18.611V32.623Z" fill="#FF6600"/>
<path d="M69.2823 24.4467L68.6901 23.5845L69.7334 23.3898C71.4817 23.0561 73.0608 22.1939 74.3015 20.9702L78.1928 17.1323C79.8847 15.4636 80.8434 13.2109 80.8434 10.8469C80.8434 5.9521 76.7829 1.94727 71.8201 1.94727C69.3951 1.94727 67.1392 2.86504 65.4473 4.56153L61.556 8.3995C59.8642 10.096 58.9054 12.3209 58.9054 14.6849C58.9054 15.2967 58.99 15.9364 59.131 16.6039L59.3566 17.5773L58.3697 17.466C57.6083 17.3548 56.9034 17.327 56.283 17.327C44.5809 17.327 31.9764 29.9811 31.7227 50.4781H34.2041C34.4861 31.5107 45.7934 19.7744 56.283 19.7744C58.0313 19.7744 59.695 20.1081 61.2459 20.7199L61.4714 20.8868C62.3738 21.8046 63.4735 22.5277 64.7142 23.0005L64.9398 23.1395C69.677 27.5893 72.4122 36.8227 72.525 48.5591H75.0064C74.95 42.3572 74.0759 31.6498 69.2823 24.5023V24.4467ZM61.3869 14.6571C61.3869 12.9328 62.0636 11.3197 63.3043 10.096L67.1956 6.25803C68.4363 5.03433 70.0718 4.36685 71.8201 4.36685C75.4294 4.36685 78.362 7.25924 78.362 10.8191C78.362 12.5434 77.6852 14.1565 76.4445 15.3802L72.5532 19.2181C71.3125 20.4418 69.677 21.1093 67.9288 21.1093C64.3194 21.1093 61.3869 18.2169 61.3869 14.6571Z" fill="#FF6600"/>
<path d="M90.064 41.0776H92.7146V36.0993H97.762V33.4851H92.7146V28.5068H90.064V33.4851H85.0166V36.0993H90.064V41.0776Z" fill="#FF6600"/>
</g>
<defs>
<clipPath id="clip0_770_5322">
<rect width="110" height="69" fill="white"/>
</clipPath>
</defs>
</svg>
