<svg width="80" height="80" viewBox="0 0 80 80" fill="none" xmlns="http://www.w3.org/2000/svg">
<path d="M59.4884 10.8926H19.8945V58.4809H59.4884V10.8926Z" fill="#FF6600"/>
<path d="M41.4365 62.4355H38.5332V65.3388H41.4365V62.4355Z" fill="#666464"/>
<path d="M60.413 57.6396H19.4727V60.5429H60.413V57.6396Z" fill="#666464"/>
<path d="M22.3759 11.9033C21.5765 11.9033 20.9033 12.5344 20.9033 13.3759V66.0976C20.9033 66.8971 21.5344 67.5703 22.3759 67.5703H57.4676C58.2671 67.5703 58.9403 66.8971 58.9403 66.0976V13.3759C58.9403 12.5765 58.3092 11.9033 57.4676 11.9033H22.3759ZM57.4676 70.4315H22.3759C19.9776 70.4315 18 68.4539 18 66.0556V13.3759C18 10.9776 19.9355 9 22.3759 9H57.4676C59.866 9 61.8436 10.9776 61.8436 13.3759V66.0976C61.8436 68.496 59.9081 70.4736 57.4676 70.4736" fill="#666464"/>
</svg>
