<svg width="70" height="80" viewBox="0 0 70 80" fill="none" xmlns="http://www.w3.org/2000/svg">
<g clip-path="url(#clip0_825_3141)">
<path d="M50.7373 20.3598L51.438 23.9456C52.6332 23.6983 53.7873 23.451 54.9001 23.1625L53.9934 19.6592C52.963 19.9065 51.8913 20.1538 50.7373 20.4011" fill="#FF6600"/>
<path d="M34.5389 39.9794C15.3735 39.9794 3.627 34.7038 3.627 30.8707V18.6296C9.68573 23.0809 22.3802 25.4302 34.5389 25.4302C38.949 25.4302 43.2354 25.1417 47.3158 24.5647L46.8212 20.9789C42.9057 21.5147 38.7841 21.8032 34.5389 21.8032C15.3735 21.8032 3.627 16.5276 3.627 12.7357C3.627 8.94384 15.3735 3.627 34.5389 3.627C53.7043 3.627 65.4508 8.94384 65.4508 12.7357C65.4508 14.5904 62.4833 16.8161 57.7434 18.5059L58.9387 21.9268C61.8238 20.8964 63.9258 19.7836 65.4508 18.6708V30.9119C65.4508 34.7038 53.7043 40.0206 34.5389 40.0206M65.4508 67.2643C65.4508 69.6548 60.6698 72.6636 52.3029 74.5595C48.4699 75.425 44.1834 75.9608 39.6909 76.2081C39.4436 76.2081 39.1963 76.2081 38.9078 76.2494C37.4652 76.3318 35.9815 76.373 34.4977 76.373C33.0139 76.373 31.5714 76.3318 30.0876 76.2494C29.8403 76.2494 29.593 76.2494 29.3045 76.2081C24.812 75.9608 20.4843 75.425 16.6924 74.5595C8.32561 72.6636 3.54456 69.6548 3.54456 67.2643V55.0232C9.6033 59.4745 22.2978 61.8238 34.4565 61.8238C41.0922 61.8238 47.5219 61.1643 53.0448 59.9279L52.2617 56.3833C47.0273 57.5374 40.8449 58.1556 34.4977 58.1556C15.3323 58.1556 3.58578 52.88 3.58578 49.0881V36.847C9.64451 41.2983 22.339 43.6476 34.4977 43.6476C46.6564 43.6476 59.3508 41.2983 65.4096 36.847V67.2643H65.4508ZM34.5389 0C17.8053 0 0 4.45131 0 12.7357V67.2643C0 72.3751 6.80062 76.0433 15.9918 78.0629C16.4451 78.1865 16.9397 78.2689 17.3931 78.3514C17.9289 78.475 18.5059 78.5574 19.0417 78.6811C19.9073 78.846 20.7316 78.9696 21.6383 79.0933C22.3802 79.2169 23.1221 79.2993 23.864 79.3818C24.4822 79.4642 25.1005 79.5054 25.7599 79.5878C26.8727 79.7115 28.0268 79.7939 29.1808 79.8351C29.4281 79.8351 29.6754 79.8351 29.9227 79.8764C31.4889 79.9588 33.0139 80 34.5801 80C36.1463 80 37.6713 80 39.2375 79.8764C39.4848 79.8764 39.7321 79.8764 39.9794 79.8351C41.1334 79.7527 42.2463 79.6703 43.4003 79.5878C44.0598 79.5466 44.678 79.4642 45.2962 79.3818C46.0381 79.2993 46.78 79.2169 47.5219 79.0933C48.3874 78.9696 49.253 78.846 50.1185 78.6811C50.6955 78.5987 51.2313 78.475 51.7671 78.3514C52.2205 78.2689 52.7151 78.1865 53.1685 78.1041C62.3184 76.0433 69.1602 72.3751 69.1602 67.2643V12.7357C69.1602 4.45131 51.355 0 34.6213 0" fill="#FF6600"/>
<path d="M14.0957 32.3129C15.291 32.6014 16.5274 32.8899 17.8463 33.1372L18.5058 29.5515C17.2693 29.3454 16.0741 29.0569 15.0025 28.8096L14.0957 32.3541V32.3129Z" fill="#FF6600"/>
<path d="M21.5969 33.7137C25.6772 34.2495 30.0461 34.538 34.5387 34.538V30.911C30.1698 30.911 25.9658 30.6637 22.0503 30.1279L21.5557 33.7549L21.5969 33.7137Z" fill="#FF6600"/>
<path d="M14.3438 50.5719C15.539 50.8604 16.2809 51.0253 17.5998 51.2726L18.2593 47.6868C17.0228 47.4807 16.3221 47.3159 15.2093 47.0273L14.3438 50.5719Z" fill="#FF6600"/>
<path d="M21.5977 51.8905C25.678 52.4263 30.0469 52.7148 34.5807 52.7148V49.0878C30.2118 49.0878 26.0078 48.8405 22.0922 48.3047L21.5977 51.9317V51.8905Z" fill="#FF6600"/>
<path d="M14.2607 68.7477C15.456 69.0362 16.1979 69.2011 17.5168 69.4484L18.1762 65.8626C16.9398 65.6565 16.2391 65.4916 15.1675 65.2031L14.302 68.7477H14.2607Z" fill="#FF6600"/>
<path d="M21.5977 70.0663C25.678 70.6021 30.0469 70.8906 34.5807 70.8906V67.2636C30.2118 67.2636 26.0078 67.0163 22.0922 66.4805L21.5977 70.1075V70.0663Z" fill="#FF6600"/>
</g>
<defs>
<clipPath id="clip0_825_3141">
<rect width="69.0778" height="80" fill="white"/>
</clipPath>
</defs>
</svg>
