<svg width="80" height="80" viewBox="0 0 80 80" fill="none" xmlns="http://www.w3.org/2000/svg">
<path d="M52.5046 24.5947H27.6074V51.6228H52.5046V24.5947Z" fill="#FF6600"/>
<path d="M41.5531 54.5752H38.9736V57.1546H41.5531V54.5752Z" fill="#666464"/>
<path d="M53.0666 50.3506H27.3096V52.93H53.0666V50.3506Z" fill="#666464"/>
<path d="M29.8879 20.2953C29.1776 20.2953 28.5794 20.8934 28.5794 21.6037V57.828C28.5794 58.5382 29.1402 59.1364 29.8879 59.1364H50.486C51.1963 59.1364 51.7944 58.5382 51.7944 57.828V21.6037C51.7944 20.8934 51.2336 20.2953 50.486 20.2953H29.8879ZM50.486 61.7158H29.8879C27.757 61.7158 26 59.9588 26 57.828V21.6037C26 19.4728 27.757 17.7158 29.8879 17.7158H50.486C52.6168 17.7158 54.3738 19.4728 54.3738 21.6037V57.828C54.3738 59.9588 52.6168 61.7158 50.486 61.7158Z" fill="#666464"/>
<path d="M53.0656 22.7627H27.3086V25.3421H53.0656V22.7627Z" fill="#666464"/>
</svg>
