<svg width="80" height="80" viewBox="0 0 80 80" fill="none" xmlns="http://www.w3.org/2000/svg">
<path d="M31.2121 5.56199L26.4778 10.0449L24.0897 13.8575L22.6652 19.304L20.7799 20.2676L18.8945 21.2312V25.7141L60.7071 26.175V20.2257H56.685C56.685 20.2257 55.5119 15.24 55.0092 14.067C54.5483 12.8939 50.4844 6.69319 50.4844 6.69319L42.1889 3.84424C42.1889 3.84424 39.34 2.41976 31.254 5.52009" fill="#FF6600"/>
<path d="M19.8998 21.6919V24.499H59.3243V21.6919H19.8998ZM59.2824 27.3479H19.8998C18.3497 27.3479 17.0928 26.091 17.0928 24.5409V21.7338C17.0928 20.1836 18.3497 18.9268 19.8998 18.9268H59.3243C60.8745 18.9268 62.1314 20.1836 62.1314 21.7338V24.5409C62.1314 26.091 60.8745 27.3479 59.3243 27.3479" fill="#666464"/>
<path d="M57.8997 20.3097H55.0926C55.0926 11.7628 48.1378 4.80803 39.5909 4.80803C31.0441 4.80803 24.0893 11.7628 24.0893 20.3097H21.2822C21.2822 10.2127 29.4939 2.00098 39.5909 2.00098C49.688 2.00098 57.8997 10.2127 57.8997 20.3097Z" fill="#666464"/>
<path d="M33.977 4.93359H31.1699V14.6535H33.977V4.93359Z" fill="#666464"/>
<path d="M46.6293 4.38965H43.8223V20.3103H46.6293V4.38965Z" fill="#666464"/>
<path d="M39.5916 59.9418L31.8408 55.2913L33.2653 52.8613L39.5916 56.6739L45.918 52.8613L47.3425 55.2913L39.5916 59.9418Z" fill="#666464"/>
<path d="M21.2826 58.8545H18.4756V78.0011H21.2826V58.8545Z" fill="#666464"/>
<path d="M60.7065 58.8545H57.8994V78.0011H60.7065V58.8545Z" fill="#666464"/>
<path d="M70.554 78.0015H67.747V74.2309C67.747 67.8207 63.7249 61.9971 57.6919 59.7347L45.5419 55.168L42.9443 48.0456L45.5838 47.082L47.7205 52.9894L58.6555 57.0953C65.7779 59.7766 70.5121 66.6476 70.5121 74.2309V78.0015H70.554Z" fill="#666464"/>
<path d="M11.4379 78.0015H8.63086V74.2309C8.63086 66.6476 13.407 59.7766 20.4875 57.0953L31.4644 52.9894L33.6011 47.082L36.2406 48.0456L33.643 55.168L21.493 59.7347C15.5019 61.9971 11.4379 67.8207 11.4379 74.2309V78.0015Z" fill="#666464"/>
<path d="M43.7397 68.1141L38.377 59.0225L40.8069 57.5981L43.9073 62.877L49.4376 54.791L51.7419 56.3412L43.7397 68.1141Z" fill="#666464"/>
<path d="M35.4456 68.1141L27.4434 56.3412L29.7477 54.791L35.278 62.877L38.3783 57.5981L40.8083 59.0225L35.4456 68.1141Z" fill="#666464"/>
<path d="M39.5908 49.8467C31.84 49.8467 25.5137 43.5203 25.5137 35.7695V25.9238H28.3207V35.7695C28.3207 41.9701 33.3902 47.0396 39.5908 47.0396C45.7915 47.0396 50.861 41.9701 50.861 35.7695V25.9238H53.668V35.7695C53.668 43.5203 47.3417 49.8467 39.5908 49.8467Z" fill="#666464"/>
<path d="M49.4368 73.7691H29.7455C28.1954 73.7691 26.9385 72.5123 26.9385 70.9621V55.6699H29.7455V70.9621H49.4368V55.6699H52.2439V70.9621C52.2439 72.5123 50.987 73.7691 49.4368 73.7691Z" fill="#666464"/>
</svg>
