<svg width="80" height="80" viewBox="0 0 80 80" fill="none" xmlns="http://www.w3.org/2000/svg">
<path d="M73.6195 12.291H5.80762V58.5487H73.6195V12.291Z" fill="#FF6600"/>
<path d="M75.705 58.5899H72.842V15.7269C72.842 14.1319 71.5741 12.864 69.9791 12.864H65.6846V10.001H69.9791C73.1283 10.001 75.705 12.5777 75.705 15.7269V58.5899Z" fill="#666464"/>
<path d="M7.15693 58.5899H4.29395V15.7269C4.29395 12.5777 6.87063 10.001 10.0199 10.001H65.7254V12.864H9.97902C8.38393 12.864 7.11603 14.1319 7.11603 15.7269V58.5899H7.15693Z" fill="#666464"/>
<path d="M2.86299 59.9802V62.8432C2.86299 65.9924 5.43967 68.5691 8.58896 68.5691H71.4519C74.6012 68.5691 77.1779 65.9924 77.1779 62.8432V59.9802H2.86299ZM71.411 71.4321H8.58896C3.88548 71.4321 0 67.5875 0 62.8432V57.1172H80V62.8432C80 67.5875 76.1554 71.4321 71.411 71.4321Z" fill="#666464"/>
<path d="M44.294 62.8418H35.7051V65.7048H44.294V62.8418Z" fill="#666464"/>
</svg>
