<svg width="80" height="80" viewBox="0 0 80 80" fill="none" xmlns="http://www.w3.org/2000/svg">
<g clip-path="url(#clip0_770_5804)">
<path d="M32.3926 3.18707C31.515 3.18707 30.7759 3.87991 30.7759 4.80369V75.1963C30.7759 76.0739 31.515 76.8129 32.3926 76.8129H74.0092C74.8868 76.8129 75.6258 76.1201 75.6258 75.1963V4.80369C75.6258 3.9261 74.8868 3.18707 74.0092 3.18707H32.3926ZM74.0092 80H32.3926C29.7598 80 27.5889 77.8291 27.5889 75.1963V4.80369C27.5889 2.1709 29.7598 0 32.3926 0H74.0092C76.642 0 78.8129 2.1709 78.8129 4.80369V75.1963C78.8129 77.8291 76.642 80 74.0092 80Z" fill="#FF6600"/>
<path d="M30.4988 79.6308L4.86374 68.4068C3.10855 67.6216 2 65.9126 2 64.0188V15.9818C2 14.0881 3.10855 12.3329 4.86374 11.5938L30.4988 0.416016L31.7921 3.32595L6.15704 14.55C5.55658 14.7809 5.18707 15.3814 5.18707 16.028V64.0188C5.18707 64.6654 5.55658 65.2197 6.15704 65.4968L31.746 76.6747L30.4527 79.6308H30.4988Z" fill="#FF6600"/>
<path d="M11.607 51.2236H8.41992V56.0273H11.607V51.2236Z" fill="#FF6600"/>
<path d="M11.607 19.2148H8.41992V48.037H11.607V19.2148Z" fill="#FF6600"/>
<path d="M37.1959 14.4107V20.831H69.2051V14.4107H37.1959ZM69.2051 24.0181H37.1959C35.4407 24.0181 34.0088 22.5862 34.0088 20.831V14.4107C34.0088 12.6555 35.4407 11.2236 37.1959 11.2236H69.2051C70.9603 11.2236 72.3922 12.6555 72.3922 14.4107V20.831C72.3922 22.5862 70.9603 24.0181 69.2051 24.0181Z" fill="#FF6600"/>
<path d="M37.1959 32.0093V38.4297H69.2051V32.0093H37.1959ZM69.2051 41.6167H37.1959C35.4407 41.6167 34.0088 40.1849 34.0088 38.4297V32.0093C34.0088 30.2541 35.4407 28.8223 37.1959 28.8223H69.2051C70.9603 28.8223 72.3922 30.2541 72.3922 32.0093V38.4297C72.3922 40.1849 70.9603 41.6167 69.2051 41.6167Z" fill="#FF6600"/>
<path d="M37.1959 49.6077V57.5984H69.2051V49.6077H37.1959ZM69.2051 60.8317H37.1959C35.4407 60.8317 34.0088 59.3998 34.0088 57.6446V49.6539C34.0088 47.8987 35.4407 46.4668 37.1959 46.4668H69.2051C70.9603 46.4668 72.3922 47.8987 72.3922 49.6539V57.6446C72.3922 59.3998 70.9603 60.8317 69.2051 60.8317Z" fill="#FF6600"/>
<path d="M53.2242 72.0089C51.469 72.0089 50.0371 70.577 50.0371 68.8218C50.0371 67.0666 51.469 65.6348 53.2242 65.6348C54.9794 65.6348 56.4112 67.0666 56.4112 68.8218C56.4112 70.577 54.9794 72.0089 53.2242 72.0089Z" fill="#FF6600"/>
</g>
<defs>
<clipPath id="clip0_770_5804">
<rect width="76.8129" height="80" fill="white" transform="translate(2)"/>
</clipPath>
</defs>
</svg>
