<svg width="81" height="81" viewBox="0 0 81 81" fill="none" xmlns="http://www.w3.org/2000/svg">
<path d="M18.9244 81.0012H16.1564V71.3358C16.1564 69.793 14.9313 68.5678 13.3884 68.5678H6.4911C4.94827 68.5678 3.72309 69.793 3.72309 71.3358V81.0012H0.955078V71.3358C0.955078 68.2956 3.40545 65.7998 6.4911 65.7998H13.3884C16.4287 65.7998 18.9244 68.2502 18.9244 71.3358V81.0012Z" fill="#666464"/>
<path d="M9.98523 50.644C8.07939 50.644 6.53656 52.1868 6.53656 54.0927V56.8607C6.53656 58.7665 8.07939 60.3093 9.98523 60.3093C11.8911 60.3093 13.4339 58.7665 13.4339 56.8607V54.0927C13.4339 52.1868 11.8911 50.644 9.98523 50.644ZM9.98523 63.0773C6.53656 63.0773 3.76855 60.3093 3.76855 56.8607V54.0927C3.76855 50.6894 6.53656 47.876 9.98523 47.876C13.4339 47.876 16.2019 50.644 16.2019 54.0927V56.8607C16.2019 60.264 13.4339 63.0773 9.98523 63.0773Z" fill="#666464"/>
<path d="M39.6168 81.0012H36.8488V71.3358C36.8488 69.793 35.6236 68.5678 34.0808 68.5678H27.1835C25.6407 68.5678 24.4155 69.793 24.4155 71.3358V81.0012H21.6475V71.3358C21.6475 68.2956 24.0978 65.7998 27.1835 65.7998H34.0808C37.1211 65.7998 39.6168 68.2502 39.6168 71.3358V81.0012Z" fill="#666464"/>
<path d="M30.6776 50.644C28.7718 50.644 27.2289 52.1868 27.2289 54.0927V56.8607C27.2289 58.7665 28.7718 60.3093 30.6776 60.3093C32.5835 60.3093 34.1263 58.7665 34.1263 56.8607V54.0927C34.1263 52.1868 32.5835 50.644 30.6776 50.644ZM30.6776 63.0773C27.2289 63.0773 24.4609 60.3093 24.4609 56.8607V54.0927C24.4609 50.6894 27.2289 47.876 30.6776 47.876C34.1263 47.876 36.8943 50.644 36.8943 54.0927V56.8607C36.8943 60.264 34.1263 63.0773 30.6776 63.0773Z" fill="#666464"/>
<path d="M60.3082 81.0012H57.5402V71.3358C57.5402 69.793 56.315 68.5678 54.7722 68.5678H47.8749C46.3321 68.5678 45.1069 69.793 45.1069 71.3358V81.0012H42.3389V71.3358C42.3389 68.2956 44.7892 65.7998 47.8749 65.7998H54.7722C57.8125 65.7998 60.3082 68.2502 60.3082 71.3358V81.0012Z" fill="#666464"/>
<path d="M51.369 50.644C49.4632 50.644 47.9204 52.1868 47.9204 54.0927V56.8607C47.9204 58.7665 49.4632 60.3093 51.369 60.3093C53.2749 60.3093 54.8177 58.7665 54.8177 56.8607V54.0927C54.8177 52.1868 53.2749 50.644 51.369 50.644ZM51.369 63.0773C47.9657 63.0773 45.1523 60.3093 45.1523 56.8607V54.0927C45.1523 50.6894 47.9204 47.876 51.369 47.876C54.8177 47.876 57.5857 50.644 57.5857 54.0927V56.8607C57.5857 60.264 54.8177 63.0773 51.369 63.0773Z" fill="#666464"/>
<path d="M81.0006 81.0012H78.2326V71.3358C78.2326 69.793 77.0074 68.5678 75.4646 68.5678H68.5673C67.0244 68.5678 65.7993 69.793 65.7993 71.3358V81.0012H63.0312V71.3358C63.0312 68.2956 65.4816 65.7998 68.5673 65.7998H75.4646C78.5049 65.7998 81.0006 68.2502 81.0006 71.3358V81.0012Z" fill="#666464"/>
<path d="M72.0614 50.644C70.1556 50.644 68.6127 52.1868 68.6127 54.0927V56.8607C68.6127 58.7665 70.1556 60.3093 72.0614 60.3093C73.9672 60.3093 75.5101 58.7665 75.5101 56.8607V54.0927C75.5101 52.1868 73.9672 50.644 72.0614 50.644ZM72.0614 63.0773C68.6127 63.0773 65.8447 60.3093 65.8447 56.8607V54.0927C65.8447 50.6894 68.6127 47.876 72.0614 47.876C75.5101 47.876 78.2781 50.644 78.2781 54.0927V56.8607C78.2781 60.264 75.5101 63.0773 72.0614 63.0773Z" fill="#666464"/>
<path d="M69.9735 9.26008H60.3081V6.49207H69.9735V3.72406H12.0268V6.49207H29.9508V9.26008H12.0268C10.5294 9.26008 9.25879 8.0349 9.25879 6.49207V3.72406C9.25879 2.22662 10.484 0.956055 12.0268 0.956055H69.9735C71.4709 0.956055 72.7415 2.18124 72.7415 3.72406V6.49207C72.7415 7.98952 71.5163 9.26008 69.9735 9.26008Z" fill="#666464"/>
<path d="M35.4877 6.53809H32.7197V9.3061H35.4877V6.53809Z" fill="#666464"/>
<path d="M41.0219 6.53809H38.2539V9.3061H41.0219V6.53809Z" fill="#666464"/>
<path d="M65.8447 42.3861H16.1567C13.8878 42.3861 12.0273 40.5256 12.0273 38.2568V7.89941H14.7954V38.2568C14.7954 39.0282 15.4306 39.6181 16.1567 39.6181H65.7993C66.5707 39.6181 67.1606 38.9828 67.1606 38.2568V7.89941H69.9286V38.2568C69.9286 40.5256 68.0682 42.3861 65.7993 42.3861" fill="#666464"/>
<path d="M61.7142 23.0555H58.9462V16.1582H52.0488V13.4355H61.7142V23.0555Z" fill="#FF6600"/>
<path d="M26.003 31.7224L24.0518 29.7711L36.8481 16.9748L46.5135 26.6401L59.3552 13.8438L61.3064 15.795L46.5135 30.5426L36.8481 20.8772L26.003 31.7224Z" fill="#FF6600"/>
<path d="M21.5194 32.3205L19.9131 33.9229L21.868 35.8825L23.4743 34.2802L21.5194 32.3205Z" fill="#FF6600"/>
</svg>
