<svg width="80" height="80" viewBox="0 0 80 80" fill="none" xmlns="http://www.w3.org/2000/svg">
<path d="M16.607 12.7635L15.4226 15.7247L14.4472 17.8846C14.4472 17.8846 13.8549 21.0547 13.8549 21.647C13.8549 22.2392 13.2627 24.9913 13.2627 24.9913L13.4717 26.1758L33.2243 26.768L34.1997 24.9913L33.2243 22.4134V17.8846L30.2631 11.5791L26.7098 10.5688L23.7486 9.97656L21.3797 10.1507C21.3797 10.1507 17.0251 12.3106 16.6419 12.7287" fill="#FF6600"/>
<path d="M49.1803 12.7635L47.9958 15.7247L47.0204 17.8846C47.0204 17.8846 46.4282 21.0547 46.4282 21.647C46.4282 22.2392 45.8359 24.9913 45.8359 24.9913L46.045 26.1758L65.7975 26.768L66.773 24.9913L65.7975 22.4134V17.8846L62.8364 11.5791L59.283 10.5688L56.3219 9.97656L53.953 10.1507C53.953 10.1507 49.5983 12.3106 49.2151 12.7287" fill="#FF6600"/>
<path d="M23.5745 36.9394C18.8366 36.9394 14.9697 33.0725 14.9697 28.3347V26.1748H17.1296V28.3347C17.1296 31.8881 20.0211 34.7795 23.5745 34.7795C27.1278 34.7795 30.0193 31.8881 30.0193 28.3347V26.1748H32.1792V28.3347C32.1792 33.0725 28.3123 36.9394 23.5745 36.9394Z" fill="#666464"/>
<path d="M23.5746 11.1605C21.2754 11.1605 19.1155 12.0663 17.513 13.6688C15.9105 15.2713 15.0047 17.466 15.0047 19.7304V22.0645L13.89 25.1999L33.2593 25.0953L32.1794 22.0645V19.7304C32.1794 14.9229 28.417 11.1257 23.5746 11.1257V11.1605ZM33.2593 27.2552H13.89C13.2281 27.2552 11.6604 25.2347 11.7997 24.5728L12.81 21.6813V19.6956C12.81 16.839 13.9248 14.1217 15.9453 12.1011C17.9659 10.0806 20.6832 8.96582 23.5398 8.96582C29.5666 8.96582 34.3044 13.7036 34.3044 19.6956V21.6813L35.2799 24.4683C35.4889 25.1999 35.3147 25.8618 34.9315 26.3843C34.5134 26.9069 33.9212 27.2204 33.2593 27.2204" fill="#666464"/>
<path d="M23.5753 20.8105H13.8906V22.9704H23.5753V20.8105Z" fill="#666464"/>
<path d="M27.8943 20.8096H25.7344V22.9695H27.8943V20.8096Z" fill="#666464"/>
<path d="M33.2584 20.8096H30.0186V22.9695H33.2584V20.8096Z" fill="#666464"/>
<path d="M41.8636 71.3242H39.7037V50.9098C39.7037 46.381 36.4638 42.6882 31.8305 41.9218L28.9739 41.4341C27.7894 41.2251 26.814 40.2845 26.5701 39.1L25.8037 35.3028L27.9288 34.8848L28.6952 38.682C28.7649 38.9955 29.0087 39.2742 29.3571 39.3091L32.2137 39.7968C37.8921 40.7374 41.8984 45.301 41.8984 50.9098V71.3242H41.8636Z" fill="#666464"/>
<path d="M5.87654 67.0397C4.72692 67.0397 3.61213 66.5519 2.67154 65.6462C0.755501 63.7301 0.860012 62.1625 1.17355 60.978L4.72692 48.2974C5.80686 44.3956 8.94219 41.33 13.053 40.1455L13.6452 42.2009C10.2312 43.1763 7.68806 45.6846 6.7823 48.8896L3.22893 61.5703C3.05474 62.267 2.98507 62.9637 4.16953 64.1482C4.48306 64.4617 5.14496 64.9843 5.94621 64.9146C6.32942 64.9146 6.74746 64.7753 7.13067 64.5662L17.8605 58.1214C18.8707 57.564 19.4281 56.4841 19.2539 55.3693C19.1146 54.3938 18.383 53.5229 17.4424 53.2094C16.7108 52.9655 16.0141 53.0352 15.3174 53.4184L9.56926 56.6234L8.52415 54.7422L14.2723 51.572C15.4915 50.9101 16.8153 50.7708 18.1043 51.1888C19.8462 51.7462 21.1351 53.279 21.379 55.0906C21.6577 57.0763 20.6823 59.0272 18.9404 60.0026L8.21062 66.4474C7.51388 66.8306 6.81714 67.0397 6.08556 67.0745C6.01589 67.0745 5.94621 67.0745 5.91138 67.0745" fill="#666464"/>
<path d="M17.5818 41.5386L17.2334 39.4136L17.8256 39.3091C18.1392 39.2394 18.4179 38.9955 18.4527 38.682L19.2191 34.8848L21.3442 35.3028L20.5777 39.1C20.3339 40.2845 19.3933 41.2251 18.174 41.4341L17.5818 41.5386Z" fill="#666464"/>
<path d="M35.3838 71.3246H33.2587V54.4286L30.5066 49.8301H19.0801V47.7051H31.7259L35.3838 53.8364V71.3246Z" fill="#666464"/>
<path d="M32.1794 40.7031H30.0195V48.7505H32.1794V40.7031Z" fill="#666464"/>
<path d="M23.5748 42.305C21.5891 42.305 19.7428 41.7824 18.3145 40.807L19.5337 39.0303C20.5789 39.727 22.042 40.1451 23.54 40.1451C25.038 40.1451 26.536 39.727 27.5811 39.0303L28.8004 40.807C27.4069 41.7824 25.5257 42.305 23.54 42.305" fill="#666464"/>
<path d="M11.7296 54.812L9.56975 54.7423C9.56975 54.1849 9.56975 53.6275 9.56975 53.0702C9.56975 50.9451 9.39556 48.8897 9.08203 47.0085L11.2071 46.6602C11.5555 48.6807 11.6948 50.8406 11.6948 53.0702C11.6948 53.6624 11.6948 54.2546 11.66 54.812" fill="#666464"/>
<path d="M13.8901 52.4079C13.681 42.9671 11.347 38.0202 10.1277 38.0202C9.18707 38.0202 7.06201 41.5736 6.50462 49.7603L4.34473 49.621C4.79761 42.9671 6.57429 35.8604 10.1277 35.8604C13.9597 35.8604 15.8409 44.1516 16.0151 52.3382H13.8552L13.8901 52.4079Z" fill="#666464"/>
<path d="M10.1274 71.3247C8.35072 71.3247 6.88756 69.5829 5.80762 66.134L7.863 65.5069C8.76876 68.4333 9.7442 69.1997 10.1274 69.1997C10.7893 69.1997 12.3918 67.2488 13.3324 61.2568L15.4575 61.5704C14.9001 65.2283 13.4369 71.3247 10.1274 71.3247Z" fill="#666464"/>
<path d="M18.2095 53.1395C18.1398 43.3503 15.6664 38.0202 14.4471 38.0202H10.1621V35.8604H14.4471C18.4185 35.8604 20.2997 44.8135 20.3693 53.1047H18.2095V53.1395Z" fill="#666464"/>
<path d="M14.4471 71.3243H10.1621V69.1644H14.4471C15.3528 69.1644 17.3037 66.029 18.0004 58.4346L20.1255 58.6436C19.8468 61.6047 18.6623 71.3243 14.4471 71.3243Z" fill="#666464"/>
<path d="M56.2862 20.8096H46.6016V22.9695H56.2862V20.8096Z" fill="#666464"/>
<path d="M60.571 20.8096H58.4111V22.9695H60.571V20.8096Z" fill="#666464"/>
<path d="M65.9713 20.8105H62.7314V22.9704H65.9713V20.8105Z" fill="#666464"/>
<path d="M56.425 36.9394C61.1629 36.9394 65.0298 33.0725 65.0298 28.3347V26.1748H62.8699V28.3347C62.8699 31.8881 59.9784 34.7795 56.425 34.7795C52.8717 34.7795 49.9802 31.8881 49.9802 28.3347V26.1748H47.8203V28.3347C47.8203 33.0725 51.6872 36.9394 56.425 36.9394Z" fill="#666464"/>
<path d="M56.4252 11.1605C58.7244 11.1605 60.8843 12.0663 62.4868 13.6688C64.0893 15.2713 64.9951 17.466 64.9951 19.7304V22.0645L66.1099 25.1999L46.7405 25.0953L47.8204 22.0645V19.7304C47.8204 14.9229 51.5828 11.1257 56.4252 11.1257V11.1605ZM46.7405 27.2552H66.075C66.7369 27.2552 67.364 26.9417 67.782 26.4191C68.2001 25.8966 68.3394 25.2347 68.1652 24.5728L67.155 21.6813V19.6956C67.155 16.839 66.0402 14.1217 64.0196 12.1011C61.9991 10.0806 59.2818 8.96582 56.4252 8.96582C50.3984 8.96582 45.6606 13.7036 45.6606 19.6956V21.6813L44.6851 24.4683C44.4761 25.1999 44.6503 25.8618 45.0335 26.3843C45.4515 26.9069 46.0438 27.2204 46.7057 27.2204" fill="#666464"/>
<path d="M54.1957 35.337L52.0707 34.9189L51.3043 38.7162C51.2346 39.0297 50.9907 39.2736 50.6772 39.3432L47.8206 39.831C45.0336 40.2838 42.6299 41.6425 40.9229 43.5585L42.0725 45.4397C43.466 43.8024 45.8 42.3392 48.1689 41.956L51.0256 41.4683C52.21 41.2593 53.1855 40.3187 53.4293 39.1342L54.1957 35.337Z" fill="#666464"/>
<path d="M74.157 67.0387C75.3066 67.0387 76.4214 66.551 77.362 65.6452C79.2781 63.7292 79.1735 62.1615 78.86 60.977L75.3066 48.2964C74.2267 44.3946 71.0914 41.329 66.9806 40.1445L66.3884 42.1999C69.8024 43.1753 72.3455 45.6836 73.2513 48.8886L76.8046 61.5693C76.9788 62.266 77.0485 62.9628 75.864 64.1472C75.5505 64.4607 74.8886 64.9833 74.0873 64.9136C73.7041 64.9136 73.2861 64.7743 72.9029 64.5653L62.1731 58.1204C61.1628 57.563 60.6054 56.4831 60.7796 55.3683C60.919 54.3929 61.6505 53.5219 62.5911 53.2084C63.3227 52.9645 64.0195 53.0342 64.7162 53.4174L70.4643 56.6224L71.5094 54.7412L65.7613 51.5711C64.542 50.9092 63.2182 50.7698 61.9292 51.1879C60.1874 51.7452 58.8984 53.2781 58.6546 55.0896C58.3759 57.0753 59.3513 59.0262 61.0932 60.0016L71.8229 66.4465C72.5197 66.8297 73.2164 67.0387 73.948 67.0735C74.0177 67.0735 74.0873 67.0735 74.1222 67.0735" fill="#666464"/>
<path d="M62.4167 41.5386L62.7651 39.4136L62.1728 39.3091C61.8593 39.2394 61.5806 38.9955 61.5458 38.682L60.7794 34.8848L58.6543 35.3028L59.4207 39.1C59.6646 40.2845 60.6052 41.2251 61.8245 41.4341L62.4167 41.5386Z" fill="#666464"/>
<path d="M44.6162 71.3246H46.7761V54.4286L49.5282 49.8301H60.9547V47.7051H48.3089L44.6162 53.8364V71.3246Z" fill="#666464"/>
<path d="M50.0163 40.7031H47.8564V48.7505H50.0163V40.7031Z" fill="#666464"/>
<path d="M56.4254 42.305C58.4111 42.305 60.2575 41.7824 61.6858 40.807L60.4665 39.0303C59.4214 39.727 57.9583 40.1451 56.4254 40.1451C54.8926 40.1451 53.4294 39.727 52.3843 39.0303L51.165 40.807C52.5585 41.7824 54.4397 42.305 56.4254 42.305Z" fill="#666464"/>
<path d="M68.3047 54.812L70.4646 54.7423C70.4646 54.1849 70.4646 53.6275 70.4646 53.0702C70.4646 50.9451 70.6388 48.8897 70.9523 47.0085L68.8272 46.6602C68.4789 48.6807 68.3395 50.8406 68.3395 53.0702C68.3395 53.6624 68.3395 54.2546 68.3744 54.812" fill="#666464"/>
<path d="M66.1104 52.4079C66.3194 42.9671 68.6535 38.0202 69.8728 38.0202C70.8134 38.0202 72.9385 41.5736 73.4958 49.7603L75.6557 49.621C75.2029 42.9671 73.4262 35.8604 69.8728 35.8604C66.0407 35.8604 64.1595 44.1516 63.9854 52.3382H66.1452L66.1104 52.4079Z" fill="#666464"/>
<path d="M69.8721 71.3247C71.6487 71.3247 73.1119 69.5829 74.1918 66.134L72.1365 65.5069C71.2307 68.4333 70.2553 69.1997 69.8721 69.1997C69.2101 69.1997 67.6076 67.2488 66.667 61.2568L64.542 61.5704C65.0994 65.2283 66.5625 71.3247 69.8721 71.3247Z" fill="#666464"/>
<path d="M61.8249 53.1395C61.8946 43.3503 64.368 38.0202 65.5873 38.0202H69.8723V35.8604H65.5873C61.6159 35.8604 59.7347 44.8135 59.665 53.1047H61.8249V53.1395Z" fill="#666464"/>
<path d="M65.5525 71.3243H69.8374V69.1644H65.5525C64.6467 69.1644 62.6958 66.029 61.9991 58.4346L59.874 58.6436C60.1527 61.6047 61.3372 71.3243 65.5525 71.3243Z" fill="#666464"/>
</svg>
