<svg width="60" height="60" viewBox="0 0 60 60" fill="none" xmlns="http://www.w3.org/2000/svg">
<path d="M27.6512 23.75L25.2114 21.3119L25.1791 21.2757C22.5783 18.6748 22.5783 14.4636 25.1791 11.8627C26.4715 10.5623 28.1786 9.91412 29.8816 9.91412C31.5846 9.91412 33.2836 10.5623 34.588 11.8627L34.6203 11.8949L34.6565 11.8627C37.2573 9.2619 41.4646 9.2619 44.0654 11.8627C45.3658 13.1591 46.014 14.8622 46.014 16.5652C46.014 18.2682 45.3658 19.9712 44.0654 21.2716L44.0332 21.3039L39.9994 25.3377" stroke="#FF6600" stroke-width="1.5" stroke-linecap="round" stroke-linejoin="round"/>
<path d="M17.2479 45.5728C17.7029 45.142 17.7552 44.4374 17.3647 43.9462L14.0391 39.7712L11.8168 36.9812L8.49123 32.8061C8.1007 32.3149 7.40017 32.2062 6.88081 32.5565L0.910156 36.5504L5.35895 42.1305L7.58134 44.9205L12.0301 50.5007L17.256 45.5687L17.2479 45.5728Z" stroke="#4B4B4B" stroke-width="1.5" stroke-linecap="round" stroke-linejoin="round"/>
<path d="M9.0918 33.5671L9.34544 33.4383C10.8713 32.6693 12.2523 31.6467 13.4279 30.4147L14.8772 28.8929C16.6608 27.0248 19.0241 25.8089 21.5806 25.4466L21.7095 25.4264C24.2902 25.0601 26.9232 25.3701 29.3469 26.3202L31.0298 26.9805C32.4309 27.528 33.9165 27.8139 35.4222 27.826L38.7639 27.8501C39.8227 27.8582 40.8333 28.293 41.562 29.0579C42.4759 30.0121 42.4517 31.5219 41.5097 32.4479C40.322 33.6154 38.7921 34.3804 37.1454 34.626C36.3241 34.7508 35.4907 34.7991 34.6573 34.7749L27.6318 34.5575" stroke="#4B4B4B" stroke-width="1.5" stroke-linecap="round" stroke-linejoin="round"/>
<path d="M16.6406 43.0407C18.6537 41.8651 20.9646 41.2893 23.2957 41.39L36.473 41.9536C40.491 42.1268 44.4084 40.6613 47.3313 37.8994L58.3466 27.492C59.0955 26.7834 58.9103 25.5434 57.9843 25.0844C56.2812 24.243 54.2642 24.3557 52.6699 25.3824L40.0965 33.5553" stroke="#4B4B4B" stroke-width="1.5" stroke-linecap="round" stroke-linejoin="round"/>
</svg>
