<svg width="120" height="120" viewBox="0 0 120 120" fill="none" xmlns="http://www.w3.org/2000/svg">
<rect width="120" height="120" fill="white"/>
<circle cx="82.9927" cy="75.6723" r="14.3032" stroke="#FF6600" stroke-width="2" stroke-linecap="round" stroke-linejoin="round"/>
<path d="M34.8389 96.6504H109.216" stroke="#4B4B4B" stroke-width="2" stroke-linecap="round" stroke-linejoin="round"/>
<path d="M70 103H97M75.5588 109H91.0441" stroke="#4B4B4B" stroke-width="2" stroke-linecap="round" stroke-linejoin="round"/>
<path d="M41.9902 37.53C41.9902 31.7371 48.6075 27.041 56.7702 27.041C64.933 27.041 71.5502 31.7371 71.5502 37.53H56.7702" stroke="#4B4B4B" stroke-width="2" stroke-linecap="round" stroke-linejoin="round"/>
<path d="M26.2571 37.53H12.4307C12.4307 31.7371 19.0479 27.041 27.2106 27.041C31.8235 27.041 35.9428 28.5407 38.6532 30.8905" stroke="#4B4B4B" stroke-width="2" stroke-linecap="round" stroke-linejoin="round"/>
<path d="M41.3016 37.3192C37.2054 33.223 38.5638 25.2233 44.3358 19.4513C50.1077 13.6794 58.1075 12.3209 62.2037 16.4172L51.0486 27.5945" stroke="#4B4B4B" stroke-width="2" stroke-linecap="round" stroke-linejoin="round"/>
<path d="M59.3817 40.3534C53.6097 34.5814 45.61 33.223 41.5138 37.3192L62.4159 58.2212C66.5121 54.125 65.1536 46.1253 59.3817 40.3534Z" stroke="#4B4B4B" stroke-width="2" stroke-linecap="round" stroke-linejoin="round"/>
<path d="M41.2482 23.3113C40.4365 21.9646 39.4219 20.6592 38.2141 19.4514C32.4421 13.6794 24.4424 12.321 20.3462 16.4172L30.7972 26.8682" stroke="#4B4B4B" stroke-width="2" stroke-linecap="round" stroke-linejoin="round"/>
<path d="M23.1691 40.3534C28.941 34.5814 36.9408 33.223 41.037 37.3192L20.1349 58.2212C16.0387 54.125 17.3972 46.1253 23.1691 40.3534Z" stroke="#4B4B4B" stroke-width="2" stroke-linecap="round" stroke-linejoin="round"/>
<path d="M11 88.545C13.0762 88.6352 16.0188 89.0818 19.4829 90.0508M50.0954 110C43.3273 101.916 35.509 96.6656 28.4447 93.3818M38.6529 39.9141C36.8474 53.4548 35.042 70.8413 19.4829 90.0508M16.7213 93.3127C17.6871 92.2199 18.6068 91.1324 19.4829 90.0508M44.8509 40.9436C44.5656 51.0715 40.7977 73.6858 28.4447 93.3818M23.8729 99.9875C25.5137 97.8389 27.0351 95.6293 28.4447 93.3818" stroke="#4B4B4B" stroke-width="2" stroke-linecap="round" stroke-linejoin="round"/>
</svg>
