<svg width="120" height="120" viewBox="0 0 120 120" fill="none" xmlns="http://www.w3.org/2000/svg">
<path d="M80.8712 64.2407C80.8712 64.2407 80.1926 67.7748 80.8606 68.4399C81.1981 68.7776 85.8956 70.8597 86.7887 71.1731" stroke="#FF6600" stroke-width="2" stroke-linecap="round" stroke-linejoin="round"/>
<path d="M67.0322 53.036C67.0322 53.036 67.0322 49.8919 67.208 48.5896C67.7284 44.7457 71.4554 41.9219 76.188 41.9219C80.9207 41.9219 84.6477 44.7457 85.1681 48.5896C85.3439 49.8919 85.3825 50.9225 85.1681 52.7574C84.9817 54.3521 84.5668 56.9357 84.1941 58.4955C84.1941 58.4955 82.858 64.4634 78.8567 65.125" stroke="#FF6600" stroke-width="2" stroke-linecap="round" stroke-linejoin="round"/>
<path d="M54.814 52.9489C54.814 52.9489 54.5925 51.7372 54.5925 51.0896C54.5925 46.9218 51.2382 41.9219 45.3628 41.9219C39.4875 41.9219 36.1332 46.9218 36.1332 51.0896C36.1332 56.9252 34.6846 63.1369 34.6846 63.1369C36.0207 65.125 41.3159 65.7831 41.3159 65.7831" stroke="#FF6600" stroke-width="2" stroke-linecap="round" stroke-linejoin="round"/>
<path d="M41.3584 63.7983C41.3584 63.7983 41.4674 67.5413 40.6903 68.4397C40.3247 68.8644 34.4739 71.2878 33.6406 71.6256" stroke="#FF6600" stroke-width="2" stroke-linecap="round" stroke-linejoin="round"/>
<path d="M67.0327 78.1055L60.8486 79.5275C60.0763 79.705 59.2729 79.6965 58.5046 79.5026L55.773 78.8133C54.038 78.3754 52.2013 78.8981 50.9568 80.1838L50.3701 80.79" stroke="#FF6600" stroke-width="2" stroke-linecap="round" stroke-linejoin="round"/>
<path d="M50.3698 80.79C48.3235 82.9035 48.2778 86.2252 50.2679 88.3944L60.0003 99.0002" stroke="#4B4B4B" stroke-width="2" stroke-linecap="round" stroke-linejoin="round"/>
<path d="M63.0625 74.1885C66.2094 72.1063 65.9175 70.7658 66.2902 67.7366C66.4906 66.1001 66.5539 64.3383 65.7593 62.8376C65.0315 61.4623 63.6954 60.5117 62.2362 60.0208C61.4346 59.7527 60.5591 59.6064 59.6765 59.6064C58.794 59.6064 57.915 59.7527 57.1168 60.0208C55.6577 60.5117 54.3216 61.4623 53.5937 62.8376C52.7991 64.3383 52.8589 66.1036 53.0628 67.7366C53.4355 70.7693 53.1472 72.1063 56.2906 74.1885" stroke="#FF6600" stroke-width="2" stroke-linecap="round" stroke-linejoin="round"/>
<path d="M60.0002 98.9967L96.5672 61.5598C105.937 52.2946 105.945 37.2634 96.5848 27.9912C86.4867 17.9216 69.7678 18.8617 60.8862 29.9967L60.0072 31.097H59.9932" stroke="#4B4B4B" stroke-width="2" stroke-linecap="round" stroke-linejoin="round"/>
<path d="M60.007 31.1006H59.9929L59.1139 30.0003C50.2323 18.8619 33.5135 17.9218 23.4154 27.9913C14.0556 37.2635 14.0627 52.2947 23.4329 61.5599L41.6215 79.5019" stroke="#4B4B4B" stroke-width="2" stroke-linecap="round" stroke-linejoin="round"/>
<path d="M60.8864 29.9971C60.8864 29.9971 59.0616 32.2429 57.1875 35.2025" stroke="#4B4B4B" stroke-width="2" stroke-linecap="round" stroke-linejoin="round"/>
</svg>
