<svg width="60" height="60" viewBox="0 0 60 60" fill="none" xmlns="http://www.w3.org/2000/svg">
<path d="M40.4356 32.1204C40.4356 32.1204 40.0963 33.8874 40.4303 34.2199C40.5991 34.3888 42.9478 35.4299 43.3943 35.5866" stroke="#FF6600" stroke-width="1.5" stroke-linecap="round" stroke-linejoin="round"/>
<path d="M33.5166 26.518C33.5166 26.518 33.5166 24.9459 33.6045 24.2948C33.8647 22.3728 35.7282 20.9609 38.0945 20.9609C40.4608 20.9609 42.3243 22.3728 42.5845 24.2948C42.6724 24.9459 42.6918 25.4612 42.5845 26.3787C42.4913 27.1761 42.2839 28.4678 42.0975 29.2478C42.0975 29.2478 41.4295 32.2317 39.4289 32.5625" stroke="#FF6600" stroke-width="1.5" stroke-linecap="round" stroke-linejoin="round"/>
<path d="M27.4065 26.4745C27.4065 26.4745 27.2958 25.8686 27.2958 25.5448C27.2958 23.4609 25.6186 20.9609 22.6809 20.9609C19.7433 20.9609 18.0661 23.4609 18.0661 25.5448C18.0661 28.4626 17.3418 31.5684 17.3418 31.5684C18.0098 32.5625 20.6574 32.8915 20.6574 32.8915" stroke="#FF6600" stroke-width="1.5" stroke-linecap="round" stroke-linejoin="round"/>
<path d="M20.6792 31.8992C20.6792 31.8992 20.7337 33.7707 20.3452 34.2198C20.1623 34.4322 17.237 35.6439 16.8203 35.8128" stroke="#FF6600" stroke-width="1.5" stroke-linecap="round" stroke-linejoin="round"/>
<path d="M33.5168 39.0527L30.4248 39.7637C30.0387 39.8525 29.637 39.8483 29.2528 39.7513L27.887 39.4066C27.0195 39.1877 26.1011 39.449 25.4789 40.0919L25.1855 40.395" stroke="#FF6600" stroke-width="1.5" stroke-linecap="round" stroke-linejoin="round"/>
<path d="M25.1849 40.395C24.1617 41.4518 24.1389 43.1126 25.1339 44.1972L30.0002 49.5001" stroke="#4B4B4B" stroke-width="1.5" stroke-linecap="round" stroke-linejoin="round"/>
<path d="M31.5312 37.0942C33.1047 36.0532 32.9588 35.3829 33.1451 33.8683C33.2453 33.0501 33.277 32.1691 32.8797 31.4188C32.5157 30.7311 31.8477 30.2559 31.1181 30.0104C30.7173 29.8763 30.2795 29.8032 29.8383 29.8032C29.397 29.8032 28.9575 29.8763 28.5584 30.0104C27.8288 30.2559 27.1608 30.7311 26.7969 31.4188C26.3996 32.1691 26.4294 33.0518 26.5314 33.8683C26.7178 35.3846 26.5736 36.0532 28.1453 37.0942" stroke="#FF6600" stroke-width="1.5" stroke-linecap="round" stroke-linejoin="round"/>
<path d="M29.9996 49.4984L48.2831 30.7799C52.9683 26.1473 52.9718 18.6317 48.2919 13.9956C43.2428 8.96081 34.8834 9.43086 30.4426 14.9984L30.0031 15.5485H29.9961" stroke="#4B4B4B" stroke-width="1.5" stroke-linecap="round" stroke-linejoin="round"/>
<path d="M30.0035 15.5501H29.9965L29.557 14.9999C25.1162 9.43068 16.7567 8.96063 11.7077 13.9954C7.02781 18.6315 7.03133 26.1471 11.7165 30.7797L20.8108 39.7507" stroke="#4B4B4B" stroke-width="1.5" stroke-linecap="round" stroke-linejoin="round"/>
<path d="M30.4432 14.9983C30.4432 14.9983 29.5308 16.1212 28.5938 17.601" stroke="#4B4B4B" stroke-width="1.5" stroke-linecap="round" stroke-linejoin="round"/>
</svg>
