<svg width="120" height="120" viewBox="0 0 120 120" fill="none" xmlns="http://www.w3.org/2000/svg">
<g clip-path="url(#clip0_515_3462)">
<path d="M55.3034 47.5L50.4237 42.6238L50.3593 42.5513C45.1576 37.3497 45.1576 28.9271 50.3593 23.7255C52.944 21.1246 56.3581 19.8282 59.7641 19.8282C63.1702 19.8282 66.5682 21.1246 69.1771 23.7255L69.2415 23.7899L69.314 23.7255C74.5156 18.5238 82.9301 18.5238 88.1318 23.7255C90.7326 26.3183 92.029 29.7243 92.029 33.1304C92.029 36.5364 90.7326 39.9425 88.1318 42.5433L88.0674 42.6077L79.9998 50.6753" stroke="#FF6600" stroke-width="2" stroke-linecap="round" stroke-linejoin="round"/>
<path d="M34.4968 91.1455C35.4067 90.284 35.5114 88.8748 34.7303 87.8925L28.0793 79.5424L23.6345 73.9623L16.9834 65.6123C16.2024 64.6299 14.8013 64.4125 13.7626 65.113L1.82129 73.1007L10.7189 84.261L15.1637 89.8411L24.0613 101.001L34.5129 91.1375L34.4968 91.1455Z" stroke="#4B4B4B" stroke-width="2" stroke-linecap="round" stroke-linejoin="round"/>
<path d="M18.1836 67.1342L18.6909 66.8766C21.7426 65.3386 24.5045 63.2934 26.8557 60.8294L29.7545 57.7857C33.3216 54.0495 38.0482 51.6178 43.1613 50.8931L43.419 50.8528C48.5804 50.1201 53.8465 50.7401 58.6938 52.6404L62.0596 53.961C64.8618 55.0561 67.833 55.6278 70.8445 55.6519L77.5277 55.7002C79.6455 55.7163 81.6665 56.586 83.124 58.1159C84.9518 60.0242 84.9035 63.0438 83.0193 64.8957C80.6439 67.2309 77.5841 68.7608 74.2908 69.2519C72.6482 69.5016 70.9814 69.5982 69.3146 69.5499L55.2636 69.1151" stroke="#4B4B4B" stroke-width="2" stroke-linecap="round" stroke-linejoin="round"/>
<path d="M33.2812 86.0804C37.3073 83.7292 41.9292 82.5777 46.5914 82.779L72.946 83.9063C80.982 84.2525 88.8168 81.3216 94.6626 75.7978L116.693 54.9831C118.191 53.5659 117.821 51.0858 115.969 50.1679C112.562 48.485 108.528 48.7105 105.34 50.7638L80.1929 67.1096" stroke="#4B4B4B" stroke-width="2" stroke-linecap="round" stroke-linejoin="round"/>
</g>
<defs>
<clipPath id="clip0_515_3462">
<rect width="117.432" height="82.8" fill="white" transform="translate(1 19.0146)"/>
</clipPath>
</defs>
</svg>
