<svg width="60" height="60" viewBox="0 0 60 60" fill="none" xmlns="http://www.w3.org/2000/svg">
<circle cx="41.4963" cy="37.8362" r="7.1516" stroke="#FF6600" stroke-width="1.5" stroke-linecap="round" stroke-linejoin="round"/>
<path d="M17.4199 48.3252H54.6083" stroke="#4B4B4B" stroke-width="1.5" stroke-linecap="round" stroke-linejoin="round"/>
<path d="M35 51.5H48.5M37.7794 54.5H45.5221" stroke="#4B4B4B" stroke-width="1.5" stroke-linecap="round" stroke-linejoin="round"/>
<path d="M20.9951 18.7653C20.9951 15.8688 24.3037 13.5208 28.3851 13.5208C32.4665 13.5208 35.7751 15.8688 35.7751 18.7653H28.3851" stroke="#4B4B4B" stroke-width="1.5" stroke-linecap="round" stroke-linejoin="round"/>
<path d="M13.1281 18.7653H6.21484C6.21484 15.8688 9.52345 13.5208 13.6048 13.5208C15.9113 13.5208 17.9709 14.2706 19.3261 15.4455" stroke="#4B4B4B" stroke-width="1.5" stroke-linecap="round" stroke-linejoin="round"/>
<path d="M20.6508 18.6596C18.6027 16.6115 19.2819 12.6116 22.1679 9.72566C25.0539 6.83969 29.0537 6.16047 31.1018 8.20858L25.5243 13.7972" stroke="#4B4B4B" stroke-width="1.5" stroke-linecap="round" stroke-linejoin="round"/>
<path d="M29.6904 20.1767C26.8044 17.2907 22.8045 16.6115 20.7564 18.6596L31.2074 29.1106C33.2555 27.0625 32.5763 23.0627 29.6904 20.1767Z" stroke="#4B4B4B" stroke-width="1.5" stroke-linecap="round" stroke-linejoin="round"/>
<path d="M20.6236 11.6557C20.2177 10.9823 19.7105 10.3296 19.1065 9.72568C16.2206 6.83971 12.2207 6.16049 10.1726 8.2086L15.3981 13.4341" stroke="#4B4B4B" stroke-width="1.5" stroke-linecap="round" stroke-linejoin="round"/>
<path d="M11.585 20.1767C14.471 17.2907 18.4709 16.6115 20.519 18.6596L10.0679 29.1106C8.01984 27.0625 8.69906 23.0627 11.585 20.1767Z" stroke="#4B4B4B" stroke-width="1.5" stroke-linecap="round" stroke-linejoin="round"/>
<path d="M5.5 44.2725C6.53808 44.3176 8.00941 44.5409 9.74143 45.0254M25.0477 54.9999C21.6637 50.9578 17.7545 48.3328 14.2223 46.6909M19.3264 19.957C18.4237 26.7274 17.521 35.4206 9.74143 45.0254M8.36064 46.6563C8.84353 46.1099 9.30338 45.5662 9.74143 45.0254M22.4255 20.4718C22.2828 25.5358 20.3989 36.8429 14.2223 46.6909M11.9364 49.9938C12.7568 48.9194 13.5175 47.8147 14.2223 46.6909" stroke="#4B4B4B" stroke-width="1.5" stroke-linecap="round" stroke-linejoin="round"/>
</svg>
