<svg width="120" height="120" viewBox="0 0 120 120" fill="none" xmlns="http://www.w3.org/2000/svg">
<path d="M91.1318 60.5317V36.498" stroke="#4B4B4B" stroke-width="2" stroke-linecap="round" stroke-linejoin="round"/>
<path d="M28.8711 36.498V92.8469H69.6121" stroke="#4B4B4B" stroke-width="2" stroke-linecap="round" stroke-linejoin="round"/>
<path d="M103.003 42.849L60.0013 19.1099L17 42.849" stroke="#4B4B4B" stroke-width="2" stroke-linecap="round" stroke-linejoin="round"/>
<path d="M75.5664 17V27.7201" stroke="#4B4B4B" stroke-width="2" stroke-linecap="round" stroke-linejoin="round"/>
<path d="M102.003 88.3696C102.003 91.9858 95.9573 94.9174 88.5013 94.9174C81.0454 94.9174 75 91.9858 75 88.3696" stroke="#FF6600" stroke-width="2" stroke-linecap="round" stroke-linejoin="round"/>
<path d="M102.003 80.2871C102.003 83.9033 95.9573 86.8349 88.5013 86.8349C81.0454 86.8349 75 83.9033 75 80.2871" stroke="#FF6600" stroke-width="2" stroke-linecap="round" stroke-linejoin="round"/>
<path d="M88.5013 78.7494C95.9579 78.7494 102.003 75.8178 102.003 72.2016C102.003 68.5853 95.9579 65.6538 88.5013 65.6538C81.0448 65.6538 75 68.5853 75 72.2016C75 75.8178 81.0448 78.7494 88.5013 78.7494Z" stroke="#FF6600" stroke-width="2" stroke-linecap="round" stroke-linejoin="round"/>
<path d="M102.003 72.2017V96.4549C102.003 100.071 95.9573 103.003 88.5013 103.003C81.0454 103.003 75 100.071 75 96.4549V72.2017" stroke="#FF6600" stroke-width="2" stroke-linecap="round" stroke-linejoin="round"/>
</svg>
