<svg width="60" height="60" viewBox="0 0 60 60" fill="none" xmlns="http://www.w3.org/2000/svg">
<path d="M45.5654 30.266V18.2491" stroke="#4B4B4B" stroke-width="1.5" stroke-linecap="round" stroke-linejoin="round"/>
<path d="M14.4355 18.2491V46.4236H34.8061" stroke="#4B4B4B" stroke-width="1.5" stroke-linecap="round" stroke-linejoin="round"/>
<path d="M51.5013 21.4246L30.0007 9.55505L8.5 21.4246" stroke="#4B4B4B" stroke-width="1.5" stroke-linecap="round" stroke-linejoin="round"/>
<path d="M37.7832 8.5V13.86" stroke="#4B4B4B" stroke-width="1.5" stroke-linecap="round" stroke-linejoin="round"/>
<path d="M51.0013 44.1847C51.0013 45.9928 47.9786 47.4586 44.2507 47.4586C40.5227 47.4586 37.5 45.9928 37.5 44.1847" stroke="#FF6600" stroke-width="1.5" stroke-linecap="round" stroke-linejoin="round"/>
<path d="M51.0013 40.1434C51.0013 41.9515 47.9786 43.4173 44.2507 43.4173C40.5227 43.4173 37.5 41.9515 37.5 40.1434" stroke="#FF6600" stroke-width="1.5" stroke-linecap="round" stroke-linejoin="round"/>
<path d="M44.2507 39.3747C47.979 39.3747 51.0013 37.9089 51.0013 36.1008C51.0013 34.2927 47.979 32.8269 44.2507 32.8269C40.5224 32.8269 37.5 34.2927 37.5 36.1008C37.5 37.9089 40.5224 39.3747 44.2507 39.3747Z" stroke="#FF6600" stroke-width="1.5" stroke-linecap="round" stroke-linejoin="round"/>
<path d="M51.0013 36.1008V48.2275C51.0013 50.0356 47.9786 51.5014 44.2507 51.5014C40.5227 51.5014 37.5 50.0356 37.5 48.2275V36.1008" stroke="#FF6600" stroke-width="1.5" stroke-linecap="round" stroke-linejoin="round"/>
</svg>
